<?xml version="1.0" encoding="utf-8"?>
<!-- Generator: Adobe Illustrator 19.2.1, SVG Export Plug-In . SVG Version: 6.00 Build 0)  -->
<svg version="1.1" baseProfile="basic" id="Layer_1"
	 xmlns="http://www.w3.org/2000/svg" xmlns:xlink="http://www.w3.org/1999/xlink" x="0px" y="0px" viewBox="0 0 612 792"
	 xml:space="preserve">
<style type="text/css">
	.st0{fill:#090405;}
	.st1{fill:none;stroke:#000000;stroke-width:3.5706;stroke-miterlimit:10;}
</style>
<g id="XMLID_13285_">
	<path id="XMLID_14_" class="st0" d="M272.2,361.6h5.7l11.4,29.6h-5.9l-2.3-6.1H269l-2.4,6.1h-5.9L272.2,361.6z M275.1,369.4
		l-4,10.2h7.9L275.1,369.4z"/>
	<path id="XMLID_11_" class="st0" d="M311.3,360.8h5.5v30.4h-5.5v-2.3c-1.1,1-2.2,1.8-3.2,2.2c-1.1,0.4-2.3,0.7-3.5,0.7
		c-2.8,0-5.3-1.1-7.3-3.3c-2.1-2.2-3.1-4.9-3.1-8.2c0-3.4,1-6.2,3-8.3c2-2.2,4.4-3.2,7.3-3.2c1.3,0,2.5,0.2,3.7,0.7
		c1.2,0.5,2.2,1.2,3.2,2.2V360.8z M305.5,373.8c-1.7,0-3.1,0.6-4.2,1.8c-1.1,1.2-1.7,2.7-1.7,4.6c0,1.9,0.6,3.5,1.7,4.7
		c1.1,1.2,2.6,1.8,4.2,1.8c1.7,0,3.2-0.6,4.3-1.8c1.1-1.2,1.7-2.8,1.7-4.7c0-1.9-0.6-3.5-1.7-4.6
		C308.7,374.4,307.3,373.8,305.5,373.8z"/>
	<path id="XMLID_8_" class="st0" d="M340.6,360.8h5.5v30.4h-5.5v-2.3c-1.1,1-2.2,1.8-3.2,2.2c-1.1,0.4-2.3,0.7-3.5,0.7
		c-2.8,0-5.3-1.1-7.3-3.3c-2.1-2.2-3.1-4.9-3.1-8.2c0-3.4,1-6.2,3-8.3c2-2.2,4.4-3.2,7.3-3.2c1.3,0,2.5,0.2,3.7,0.7
		c1.2,0.5,2.2,1.2,3.2,2.2V360.8z M334.8,373.8c-1.7,0-3.1,0.6-4.2,1.8c-1.1,1.2-1.7,2.7-1.7,4.6c0,1.9,0.6,3.5,1.7,4.7
		c1.1,1.2,2.6,1.8,4.2,1.8c1.7,0,3.2-0.6,4.3-1.8c1.1-1.2,1.7-2.8,1.7-4.7c0-1.9-0.6-3.5-1.7-4.6C338,374.4,336.6,373.8,334.8,373.8
		z"/>
	<path id="XMLID_5_" class="st0" d="M280.7,407.5c2.1,0,4,0.5,5.8,1.6c1.8,1,3.2,2.4,4.3,4.2c1,1.8,1.5,3.7,1.5,5.7
		c0,2.1-0.5,4-1.5,5.8c-1,1.8-2.4,3.2-4.2,4.2c-1.8,1-3.7,1.5-5.9,1.5c-3.1,0-5.8-1.1-8-3.4c-2.2-2.2-3.3-5-3.3-8.1
		c0-3.4,1.3-6.3,3.8-8.6C275.3,408.5,277.8,407.5,280.7,407.5z M280.8,412.7c-1.7,0-3.1,0.6-4.3,1.8c-1.1,1.2-1.7,2.7-1.7,4.6
		c0,1.9,0.6,3.5,1.7,4.6c1.1,1.2,2.5,1.8,4.3,1.8c1.7,0,3.2-0.6,4.3-1.8c1.1-1.2,1.7-2.7,1.7-4.6c0-1.9-0.6-3.4-1.7-4.6
		C284,413.2,282.5,412.7,280.8,412.7z"/>
	<path id="XMLID_3_" class="st0" d="M298.9,408h5.5v2.2c1.2-1.1,2.4-1.8,3.4-2.2c1-0.4,2-0.6,3.1-0.6c2.2,0,4,0.8,5.5,2.3
		c1.3,1.3,1.9,3.2,1.9,5.7V430h-5.4v-9.6c0-2.6-0.1-4.4-0.4-5.2c-0.2-0.9-0.6-1.5-1.2-2c-0.6-0.4-1.3-0.7-2.2-0.7
		c-1.1,0-2.1,0.4-2.9,1.1c-0.8,0.7-1.4,1.8-1.7,3.1c-0.2,0.7-0.2,2.2-0.2,4.4v8.8h-5.5V408z"/>
	<path id="XMLID_1_" class="st0" d="M339.1,411.1l-3.4,3.4c-1.4-1.4-2.6-2.1-3.8-2.1c-0.6,0-1.1,0.1-1.5,0.4c-0.3,0.3-0.5,0.6-0.5,1
		c0,0.3,0.1,0.6,0.3,0.8c0.2,0.2,0.8,0.6,1.6,1l2,1c2.1,1,3.6,2.1,4.4,3.2c0.8,1.1,1.2,2.4,1.2,3.8c0,1.9-0.7,3.6-2.1,4.9
		c-1.4,1.3-3.3,2-5.8,2c-3.2,0-5.7-1.2-7.7-3.7l3.4-3.7c0.6,0.8,1.4,1.4,2.3,1.8c0.9,0.5,1.6,0.7,2.3,0.7c0.7,0,1.3-0.2,1.8-0.5
		c0.4-0.3,0.7-0.8,0.7-1.2c0-0.8-0.8-1.7-2.4-2.5l-1.9-0.9c-3.5-1.8-5.3-4-5.3-6.7c0-1.7,0.7-3.2,2-4.4c1.3-1.2,3-1.8,5.1-1.8
		c1.4,0,2.8,0.3,4,0.9C337.2,409,338.2,409.9,339.1,411.1z"/>
</g>
<circle id="XMLID_657_" class="st1" cx="306" cy="396.4" r="75"/>
</svg>
