<?xml version="1.0" encoding="utf-8"?>
<!-- Generator: Adobe Illustrator 19.2.1, SVG Export Plug-In . SVG Version: 6.00 Build 0)  -->
<svg version="1.1" id="Layer_1" xmlns="http://www.w3.org/2000/svg" xmlns:xlink="http://www.w3.org/1999/xlink" x="0px" y="0px"
	 viewBox="0 0 177 125" style="enable-background:new 0 0 177 125;" xml:space="preserve">
<style type="text/css">
	.st0{fill:#FFF9BB;}
	.st1{fill:#603813;}
	.st2{fill:#C1B49A;}
	.st3{font-family:'CenturyGothic';}
	.st4{font-size:26px;}
</style>
<title>birthday</title>
<g id="XMLID_98_">
	<g id="XMLID_2732_">
		<path id="XMLID_2762_" class="st0" d="M106.9,19.3c-0.4,0-0.9,0-1.3,0c-3.2-0.2-5.4-1-6.6-2.7c-1.3-1.7-0.9-3.4-0.8-3.6
			c0.2-0.7,0.9-1.2,1.6-1c0.7,0.2,1.2,0.9,1,1.6c0,0.1-0.1,0.8,0.4,1.4c0.5,0.6,1.7,1.4,4.5,1.5c5.4,0.3,8.3-1.3,9-2
			c-1.1-0.9-5.4-2.4-9.6,0.2c-0.6,0.4-1.5,0.2-1.9-0.4c-0.4-0.6-0.2-1.5,0.4-1.9c4.6-2.9,8.8-1.8,10.5-1.2c0.8,0.3,2.8,1.1,3.3,2.5
			c0.1,0.4,0.3,1.3-0.5,2.3C115.7,17.7,112.1,19.3,106.9,19.3z"/>
		<path id="XMLID_2761_" class="st0" d="M105.8,23.3c-4.3,0-7.2-1.4-9-2.8c-2.6-2-3.7-4.3-3.7-4.4c-0.3-0.7,0-1.5,0.7-1.8
			c0.7-0.3,1.5,0,1.8,0.7c0.1,0.3,3.4,7.2,13.8,5.2c10.1-1.9,10.3-5.8,10.3-5.8c0-0.7,0.5-1.4,1.3-1.4c0.7-0.1,1.4,0.5,1.4,1.3
			c0,0.6,0,6.2-12.5,8.6C108.4,23.2,107.1,23.3,105.8,23.3z"/>
		<path id="XMLID_2760_" class="st0" d="M108,26.6c-12.4,0-18.8-6.5-19.1-6.8c-0.5-0.5-0.5-1.4,0-1.9c0.5-0.5,1.4-0.5,1.9,0l0,0
			c0,0,1.8,1.8,5.3,3.4c3.2,1.5,8.5,3.1,15.6,2.3c8.4-0.9,11.8-2.9,12.2-4.4c0.2-0.7-0.5-1.3-0.8-1.5c-0.6-0.4-0.7-1.3-0.3-1.9
			c0.4-0.6,1.3-0.7,1.9-0.3c1.5,1.1,2.2,2.8,1.8,4.3c-0.6,2.3-3.6,5.2-14.5,6.4C110.6,26.5,109.3,26.6,108,26.6z"/>
		<path id="XMLID_2759_" class="st0" d="M107.2,31.2c-19.1,0-23.4-8.7-23.6-9.1c-0.3-0.7,0-1.5,0.7-1.8c0.7-0.3,1.5,0,1.8,0.7
			c0.1,0.2,4.7,8.9,26,7.3c13.3-1,15.9-5.8,17.3-8.4c0.2-0.4,0.4-0.8,0.6-1.1c0.4-0.6,1.3-0.8,1.9-0.4c0.6,0.4,0.8,1.3,0.4,1.9
			c-0.1,0.2-0.3,0.5-0.5,0.9c-1.5,2.8-4.7,8.7-19.5,9.8C110.5,31.2,108.8,31.2,107.2,31.2z"/>
		<path id="XMLID_2758_" class="st0" d="M104.8,34.7c-2.5,0-5.2-0.1-8.1-0.3c-9.2-0.6-14.9-2.5-17-5.8c-1.3-2.1-0.6-3.9-0.6-4.1
			c0.3-0.7,1.1-1,1.8-0.7c0.7,0.3,1,1,0.8,1.7c0,0.1-0.2,0.8,0.4,1.7c0.9,1.4,4.1,3.8,14.8,4.4c24.8,1.5,32.1-3.4,39.1-10
			c0.5-0.5,1.4-0.5,1.9,0.1c0.5,0.5,0.5,1.4-0.1,1.9C132.5,28.7,126.1,34.7,104.8,34.7z"/>
		<path id="XMLID_2757_" class="st0" d="M102.1,39.2c-4.1,0-8.4-0.3-12.8-1c-7.5-1.1-12.1-3.2-13.4-6.3c-0.9-2-0.2-3.9,0.3-4.6
			c0.4-0.6,1.3-0.8,1.9-0.4c0.6,0.4,0.8,1.2,0.4,1.9c0,0.1-0.6,1-0.1,2.1c0.6,1.2,2.8,3.5,11.3,4.7c11.4,1.7,32.9,2.5,48.5-10.8
			c0.6-0.5,1.4-0.4,1.9,0.2c0.5,0.6,0.4,1.4-0.2,1.9C130.4,34.9,117.3,39.2,102.1,39.2z"/>
		<path id="XMLID_2756_" class="st0" d="M111.4,79.7c-4.6,0-9.1-0.4-13.1-1c-13.2-2-21.7-7.1-25.5-15c-2.6-5.4-2.8-12.2-0.7-19.6
			c1.6-5.5,3.8-9.5,3.9-9.7c0.4-0.6,1.2-0.9,1.9-0.5c0.6,0.4,0.9,1.2,0.5,1.9c-0.1,0.1-8.7,15.1-3.1,26.8
			c3.4,7.1,11.3,11.6,23.5,13.5c21.7,3.3,33.7-2,39.9-7.2c6.5-5.3,9.1-12.2,9.3-16.4c0.4-7.9-1.9-14-8.3-21.9
			c-0.5-0.6-0.4-1.4,0.2-1.9c0.6-0.5,1.4-0.4,1.9,0.2c6.7,8.3,9.3,15.2,8.9,23.7c-0.2,5-3.1,12.5-10.3,18.4
			C132.1,77.7,121.4,79.7,111.4,79.7z"/>
		<ellipse id="XMLID_2755_" class="st0" cx="109" cy="53.7" rx="3.1" ry="4.2"/>
		<ellipse id="XMLID_2751_" class="st0" cx="130" cy="50.9" rx="2.8" ry="3.8"/>
		<g id="XMLID_2746_">
			<path id="XMLID_2750_" class="st0" d="M120.9,67.2c-3.6,0-6.3-1.9-6.4-2c-0.4-0.3-0.5-0.9-0.2-1.3c0.3-0.4,0.9-0.5,1.3-0.2
				c0,0,2.6,1.8,5.8,1.6c3.3-0.2,4.4-3.5,4.5-3.6c0.2-0.5,0.7-0.7,1.1-0.6c0.5,0.2,0.7,0.7,0.6,1.1c-0.1,0.2-1.5,4.6-6.1,4.8
				C121.3,67.2,121.1,67.2,120.9,67.2z"/>
		</g>
		<g id="XMLID_2737_">
			<path id="XMLID_2744_" class="st0" d="M114.1,66.7c-0.1,0-0.3,0-0.4-0.1c-0.4-0.2-0.6-0.8-0.4-1.2l1.7-3.2
				c0.2-0.4,0.8-0.6,1.2-0.4c0.4,0.2,0.6,0.8,0.4,1.2l-1.7,3.2C114.7,66.6,114.4,66.7,114.1,66.7z"/>
		</g>
	</g>
	<g id="XMLID_99_">
		<ellipse id="XMLID_2731_" class="st0" cx="62.9" cy="70.9" rx="32.8" ry="10.6"/>
		<ellipse id="XMLID_2728_" class="st0" cx="62.9" cy="46.3" rx="28.3" ry="9.2"/>
		<rect id="XMLID_2727_" x="34.4" y="46.3" class="st0" width="56.9" height="23.2"/>
		<rect id="XMLID_2724_" x="58.4" y="23.4" class="st0" width="6.2" height="17.4"/>
		<circle id="XMLID_938_" class="st0" cx="61.5" cy="16.8" r="3.4"/>
		<path id="XMLID_679_" class="st0" d="M64.4,18.6c0,0,1.7-1.9-0.5-5.2c-2.2-3.3-0.5-3.8-0.5-3.8s-5.7,2.5-5.4,7.7L64.4,18.6z"/>
		<path id="XMLID_100_" class="st1" d="M35.6,50.4v19.1c0,0,6.5,6.8,27.7,6.8s27-7.5,27-7.5V48.4c0,0,0.5,6.5-4.3,7.7
			s-6.3-2.9-9.4-2.9s-5.8,6-6.8,7.5S66,66,60.7,62.4s-6.3-9.6-10.9-9.9c-4.6-0.2-6,5.5-8.2,5.5S36.8,55,35.6,50.4z"/>
	</g>
</g>
<text id="XMLID_91_" transform="matrix(1 0 0 1 5.2331 118.1963)" class="st2 st3 st4">Birthday Gifts</text>
</svg>
