<svg id="Layer_1" data-name="Layer 1" xmlns="http://www.w3.org/2000/svg" viewBox="0 0 151.54 95.61"><defs><style>.cls-1{fill:#fffabc;}.cls-2{fill:none;stroke:#603913;stroke-miterlimit:10;}</style></defs><title>cash-back</title><path id="_Path_" data-name="&lt;Path&gt;" class="cls-1" d="M100,21q-0.89,0-1.82,0c-4.37-.21-7.44-1.45-9.11-3.67a6.29,6.29,0,0,1-1.17-5,1.87,1.87,0,0,1,3.65.83,2.62,2.62,0,0,0,.55,2C92.82,16,94.46,17,98.4,17.23c7.47,0.37,11.44-1.81,12.41-2.83-1.52-1.23-7.4-3.28-13.21.33a1.87,1.87,0,0,1-2-3.18,16.59,16.59,0,0,1,14.46-1.68c1.14,0.41,3.86,1.58,4.51,3.51a3.3,3.3,0,0,1-.67,3.12C112.16,18.83,107.25,21,100,21Z" transform="translate(-9.03 -8.94)"/><path id="_Path_2" data-name="&lt;Path&gt;" class="cls-1" d="M98.56,26.57a20.25,20.25,0,0,1-12.47-3.9A16.9,16.9,0,0,1,81,16.6a1.87,1.87,0,0,1,3.42-1.5c0.19,0.43,4.7,10,19.13,7.23,14-2.69,14.28-8,14.28-8a1.87,1.87,0,0,1,3.73-.23c0.05,0.87,0,8.59-17.3,11.92A30,30,0,0,1,98.56,26.57Z" transform="translate(-9.03 -8.94)"/><path id="_Path_3" data-name="&lt;Path&gt;" class="cls-1" d="M101.55,31.1c-17.14,0-26-9-26.44-9.38a1.87,1.87,0,0,1,2.68-2.61h0a27,27,0,0,0,7.31,4.76,40.62,40.62,0,0,0,21.59,3.2c11.61-1.25,16.35-4,16.88-6a2.09,2.09,0,0,0-1-2,1.87,1.87,0,0,1,2.19-3,5.65,5.65,0,0,1,2.47,6c-0.83,3.11-5,7.17-20.09,8.79A51.92,51.92,0,0,1,101.55,31.1Z" transform="translate(-9.03 -8.94)"/><path id="_Path_4" data-name="&lt;Path&gt;" class="cls-1" d="M100.49,37.51c-26.46,0-32.33-12-32.58-12.57a1.87,1.87,0,0,1,3.39-1.58c0.11,0.21,6.47,12.3,36,10.16,18.32-1.33,21.95-8,23.89-11.6,0.29-.54.57-1.05,0.87-1.5a1.87,1.87,0,1,1,3.11,2.07c-0.2.3-.43,0.72-0.69,1.21-2.13,3.92-6.55,12.07-26.91,13.54C105.05,37.43,102.7,37.51,100.49,37.51Z" transform="translate(-9.03 -8.94)"/><path id="_Path_5" data-name="&lt;Path&gt;" class="cls-1" d="M97.1,42.38c-3.44,0-7.16-.11-11.19-0.36-12.73-.77-20.63-3.45-23.49-8a6.34,6.34,0,0,1-.78-5.61,1.87,1.87,0,0,1,3.48,1.36,2.81,2.81,0,0,0,.54,2.36c1.28,1.9,5.65,5.23,20.47,6.12,34.23,2.06,44.38-4.73,54.09-13.84a1.87,1.87,0,0,1,2.56,2.73C135.47,34,126.57,42.38,97.1,42.38Z" transform="translate(-9.03 -8.94)"/><path id="_Path_6" data-name="&lt;Path&gt;" class="cls-1" d="M93.45,48.52a123,123,0,0,1-17.68-1.32c-10.42-1.51-16.66-4.46-18.56-8.74A6.89,6.89,0,0,1,57.66,32a1.87,1.87,0,0,1,3.12,2.07A3.16,3.16,0,0,0,60.66,37c0.78,1.69,3.86,4.79,15.65,6.5,15.78,2.3,45.48,3.41,67.09-15a1.87,1.87,0,1,1,2.42,2.85C132.59,42.65,114.39,48.52,93.45,48.52Z" transform="translate(-9.03 -8.94)"/><path id="_Path_7" data-name="&lt;Path&gt;" class="cls-1" d="M160.51,67.05c-0.33,6.92-4.23,17.22-14.19,25.36-11.4,9.32-26.26,12.13-40,12.13a119.59,119.59,0,0,1-18-1.45C70,100.3,58.17,93.33,53,82.37c-3.55-7.45-3.9-16.83-1-27.12A62.27,62.27,0,0,1,57.4,41.91a1.87,1.87,0,0,1,3.23,1.89c-0.12.21-12,20.88-4.29,37C61,90.54,71.92,96.81,88.8,99.4c30,4.61,46.53-2.83,55.15-9.88,9-7.37,12.54-16.81,12.82-22.64" transform="translate(-9.03 -8.94)"/><path id="_Path_8" data-name="&lt;Path&gt;" class="cls-1" d="M156.77,66.88c0.52-10.89-2.69-19.36-11.43-30.22a1.87,1.87,0,1,1,2.91-2.35c9.26,11.5,12.82,21,12.26,32.74" transform="translate(-9.03 -8.94)"/><ellipse id="_Path_9" data-name="&lt;Path&gt;" class="cls-1" cx="93.93" cy="59.69" rx="4.26" ry="5.82"/><ellipse id="_Path_10" data-name="&lt;Path&gt;" class="cls-1" cx="123.02" cy="55.74" rx="3.8" ry="5.19"/><g id="_Group_" data-name="&lt;Group&gt;"><path id="_Path_11" data-name="&lt;Path&gt;" class="cls-1" d="M119.39,87.25a16.33,16.33,0,0,1-8.81-2.74,1.25,1.25,0,1,1,1.46-2,13.87,13.87,0,0,0,8,2.25c4.59-.26,6.14-4.89,6.16-4.93a1.25,1.25,0,1,1,2.37.77c-0.08.26-2.12,6.29-8.39,6.65Z" transform="translate(-9.03 -8.94)"/></g><g id="_Group_2" data-name="&lt;Group&gt;"><path id="_Path_12" data-name="&lt;Path&gt;" class="cls-1" d="M110,86.61a1.25,1.25,0,0,1-1.09-1.84l2.37-4.38a1.25,1.25,0,0,1,2.19,1.19L111.13,86A1.25,1.25,0,0,1,110,86.61Z" transform="translate(-9.03 -8.94)"/></g><rect id="_Rectangle_" data-name="&lt;Rectangle&gt;" class="cls-1" y="44.71" width="68.76" height="40"/><circle id="_Path_13" data-name="&lt;Path&gt;" class="cls-2" cx="34.38" cy="65.21" r="17"/></svg>