<?xml version="1.0" encoding="utf-8"?>
<!-- Generator: Adobe Illustrator 19.2.1, SVG Export Plug-In . SVG Version: 6.00 Build 0)  -->
<svg version="1.1" id="Layer_1" xmlns="http://www.w3.org/2000/svg" xmlns:xlink="http://www.w3.org/1999/xlink" x="0px" y="0px"
	 viewBox="0 0 77.2 55.1" style="enable-background:new 0 0 77.2 55.1;" xml:space="preserve">
<style type="text/css">
	.st0{fill:none;stroke:#FFFFFF;stroke-width:2.16;stroke-linecap:round;stroke-miterlimit:10;}
	.st1{fill:#FFFFFF;}
	.st2{fill:none;stroke:#FFFFFF;stroke-width:1.44;stroke-linecap:round;stroke-miterlimit:10;}
	.st3{fill:#FFFFFF;stroke:#8B5E3C;stroke-width:0.39;stroke-miterlimit:10;}
</style>
<title>rotiboyroyalty</title>
<path id="_Path_" class="st0" d="M35.4,2.2c0,0-0.8,3.4,4.9,3.7s8.7-1.9,8.4-3s-4.9-3.2-9.3-0.5"/>
<path id="_Path_2" class="st0" d="M32.3,4c0,0,2.9,6.6,12.2,4.8S53.7,3,53.7,3"/>
<path id="_Path_3" class="st0" d="M28.8,6.6c0,0,6,6.2,17.5,4.9s11.8-5,9.6-6.6"/>
<path id="_Path_4" class="st0" d="M24.8,8.8c0,0,3.6,7.8,21.8,6.5c12.7-0.9,13.9-6.2,15.1-8"/>
<path id="_Path_5" class="st0" d="M21.2,11.6c0,0-2.2,5.4,13.1,6.4c20.8,1.3,26.7-3.3,32-8.3"/>
<path id="_Path_6" class="st0" d="M18.8,13.9c0,0-3.5,5.1,9.7,7.1s28.4,0.6,39.5-8.9"/>
<path id="_Path_7" class="st0" d="M18.7,19.5c0,0-16.7,28.5,17,33.6C66.9,58,75.7,41,76.1,33.4c0.3-6.5-1.6-11.7-6.8-18.1"/>
<ellipse id="_Path_8" class="st1" cx="44" cy="34.4" rx="2.5" ry="3.3"/>
<ellipse id="_Path_9" class="st1" cx="60.8" cy="32.1" rx="2.2" ry="3"/>
<g id="_Group_4">
	<path id="_Path_10" class="st2" d="M58.1,41c-0.6,1.8-2.3,3.1-4.2,3.3c-1.8,0.1-3.6-0.4-5.1-1.4"/>
</g>
<g id="_Group_5">
	<line id="_Path_11" class="st2" x1="48.1" y1="44" x2="49.5" y2="41.5"/>
</g>
<g id="_Group_6">
	<path id="_Path_12" class="st1" d="M7.4,13.7c0,0,0.3,10.2-3.8,13.1s-5.9,20,1.7,24s15.2-0.4,15.4-2.8s-2.3-3.7-2.3-3.7
		c1.4-0.5,2.4-1.6,2.7-3c0.6-2.2-0.2-4.5-1.9-5.9c0,0,2.7-1.4,1.8-5.4c-0.3-1.4-0.6-2.4-4.1-3.6s-5.4-0.7-5.4-0.7s2.8-4.9,2.1-8.4
		S7.8,13.4,7.4,13.7z"/>
	<path id="_Path_13" class="st3" d="M18.6,35.2c0,0-2.5-2.5-9.9-0.9"/>
	<path id="_Path_14" class="st3" d="M17.7,43.8c0.2,0.4-2.2-1.9-9.9-0.9"/>
</g>
</svg>
