<svg id="Layer_1" data-name="Layer 1" xmlns="http://www.w3.org/2000/svg" viewBox="0 0 50.36 60.01"><defs><style>.cls-1{fill:#fff;}.cls-2{fill:#603913;}.cls-3{fill:#fffabc;}.cls-4{fill:#512c1d;}</style></defs><title>home</title><g id="_Group_" data-name="&lt;Group&gt;"><rect id="_Rectangle_" data-name="&lt;Rectangle&gt;" class="cls-1" x="1.68" y="18.48" width="47" height="41.52" rx="0.06" ry="0.06"/><path id="_Path_" data-name="&lt;Path&gt;" class="cls-1" d="M4.88,23.64L28.26,5.09a0.06,0.06,0,0,1,.07,0L51.71,23.64a0.06,0.06,0,0,1,0,.11H4.92A0.06,0.06,0,0,1,4.88,23.64Z" transform="translate(-3.2 -5.08)"/><path id="_Path_2" data-name="&lt;Path&gt;" class="cls-2" d="M27.2,40.62a7.47,7.47,0,0,0-6.32,7.51V63a0.06,0.06,0,0,0,.06.06H35.32A0.06,0.06,0,0,0,35.38,63V47.81A7.27,7.27,0,0,0,27.2,40.62Z" transform="translate(-3.2 -5.08)"/><rect id="_Rectangle_2" data-name="&lt;Rectangle&gt;" class="cls-3" y="56.85" width="50.36" height="3.16" rx="0.06" ry="0.06"/><g id="_Group_2" data-name="&lt;Group&gt;"><path id="_Compound_Path_" data-name="&lt;Compound Path&gt;" class="cls-4" d="M10.36,32.08h0a1.45,1.45,0,0,1-1.44.78,1.63,1.63,0,0,1-.72.69l3,0.23a0.06,0.06,0,0,0,.05,0l0.64-1h-1.7s1.08-.43,1.57-2.49h0.79l1.34,2.23,0.39,0.65a1,1,0,0,0,1.35.43,11.63,11.63,0,0,0,1.05-1V32.44l-1,.66s-0.39.23-.82-0.59-1.14-2.11-1.29-2.38a0,0,0,0,1,0-.07,3.7,3.7,0,0,0,2-2.4A1.78,1.78,0,0,0,14,26.47a9.54,9.54,0,0,0-3.28.06,2.92,2.92,0,0,0-2.3,2,3.44,3.44,0,0,0-.1.72l0.92-.46S9.05,27,11.38,26.7a3.64,3.64,0,0,1-.1,1.18C11.12,28.72,10.38,32,10.36,32.08Zm2.1-5.44s0.59,0,.88.07a1.29,1.29,0,0,1,1.15,1.12,2,2,0,0,1-.89,1.9,2.53,2.53,0,0,1-1.71.23A20.37,20.37,0,0,0,12.46,26.63Z" transform="translate(-3.2 -5.08)"/><path id="_Compound_Path_2" data-name="&lt;Compound Path&gt;" class="cls-4" d="M21.81,29.42c-0.59-1.64-2.34-1-2.89-.72a4.18,4.18,0,0,0-2,3.35,2.17,2.17,0,0,0,.16,1c0.49,1.18,2,.91,2.33.75A4.26,4.26,0,0,0,21.81,29.42Zm-2.39,4A0.92,0.92,0,0,1,18.2,33a3,3,0,0,1-.2-1.44,0.74,0.74,0,0,1,.07-0.49,2.63,2.63,0,0,1,1.28-2.13,1,1,0,0,1,1.38.82C20.78,30.07,20.73,32.51,19.42,33.42Z" transform="translate(-3.2 -5.08)"/><path id="_Compound_Path_3" data-name="&lt;Compound Path&gt;" class="cls-4" d="M42,29.42c-0.59-1.64-2.34-1-2.89-.72a4.18,4.18,0,0,0-2,3.35,2.24,2.24,0,0,0,.16,1c0.49,1.18,2,.91,2.33.75A4.26,4.26,0,0,0,42,29.42Zm-2.39,4A0.92,0.92,0,0,1,38.38,33a3,3,0,0,1-.2-1.44,0.74,0.74,0,0,1,.07-0.49,2.63,2.63,0,0,1,1.28-2.13,1,1,0,0,1,1.38.82C41,30.07,40.91,32.51,39.6,33.42Z" transform="translate(-3.2 -5.08)"/><path id="_Path_3" data-name="&lt;Path&gt;" class="cls-4" d="M24.62,28.91a0.06,0.06,0,0,1,.06,0h1.56l0.3-.59H24.76l0.36-1.51L24,26.93l-0.33,1.41H22.89l-0.2.49h0.92a38.81,38.81,0,0,0-.79,3.8c0,0.79.33,1.28,0.82,1.25,0.16,0,.59.13,1.77-1l0.07-.42a3.2,3.2,0,0,1-1.12.82c-0.3,0-.79-0.1-0.49-1.44C24,31.33,24.53,29.23,24.62,28.91Z" transform="translate(-3.2 -5.08)"/><path id="_Path_4" data-name="&lt;Path&gt;" class="cls-4" d="M29.94,25.58a7.07,7.07,0,0,1-1.54,1l-0.1.59,1.22-.52,0,0Z" transform="translate(-3.2 -5.08)"/><path id="_Path_5" data-name="&lt;Path&gt;" class="cls-4" d="M29.84,32.73l0-.39a12.1,12.1,0,0,1-1.18.95c-0.26.13-.69,0.13-0.43-0.82s0.84-3.56,1-4.1a0.06,0.06,0,0,0-.08-0.06l-2.33.79,0,0.26,1-.2L27.22,32.6s-0.2,1.25.46,1.31a1.61,1.61,0,0,0,.95-0.23A8.7,8.7,0,0,0,29.84,32.73Z" transform="translate(-3.2 -5.08)"/><path id="_Compound_Path_4" data-name="&lt;Compound Path&gt;" class="cls-4" d="M35.52,26l0.62-.69a3.61,3.61,0,0,0-3.22.82c-0.32.31-.79,0.82-1.38,3.18-0.3,1.2-.93,4-1,4.46a0.05,0.05,0,0,0,.06.07h2.15s1.61,0.07,2.89-2.82c0.19-.43.66-2.66-0.56-2.75-0.39,0-1,.16-2.26,1.57A11.05,11.05,0,0,0,32.07,31s0.43-3.44,1.12-4.4S34.53,25.35,35.52,26Zm-2.16,3.9c0.41-.44,1.31-1.28,1.38-0.3s0.07,3-1.57,3.71a1.5,1.5,0,0,1-1.44-.2s0-.26.06-0.46a1.08,1.08,0,0,1,.07-0.26S31.88,31.45,33.35,29.88Z" transform="translate(-3.2 -5.08)"/><path id="_Path_6" data-name="&lt;Path&gt;" class="cls-4" d="M45.62,32.77c-0.66.36-.53-2-0.53-2s-0.2-2.3-.59-2.53-1.38.66-1.38,0.66l-0.56.52v0.49a5.18,5.18,0,0,1,.79-0.85c0.26-.23.46,0,0.49,0.49s0.13,2,.23,2.53,0.16,1.74.79,1.83a2.45,2.45,0,0,0,1.48-1.31c0.39-.66.56-1,0.56-1l0.13-.1s-1,3.74-1.18,4.23a1.29,1.29,0,0,1-1.74.92,1.08,1.08,0,0,1-.46-0.36L43.06,37a5.3,5.3,0,0,0,1.64.26,3.49,3.49,0,0,0,2.1-1.87c0.23-.46,1.51-4.89,2-6.85H47.95S46.78,32.13,45.62,32.77Z" transform="translate(-3.2 -5.08)"/></g></g></svg>