<?xml version="1.0" encoding="utf-8"?>
<!-- Generator: Adobe Illustrator 19.2.1, SVG Export Plug-In . SVG Version: 6.00 Build 0)  -->
<svg version="1.1" baseProfile="basic" id="Layer_1"
	 xmlns="http://www.w3.org/2000/svg" xmlns:xlink="http://www.w3.org/1999/xlink" x="0px" y="0px" viewBox="0 0 130 131"
	 xml:space="preserve">
<style type="text/css">
	.st0{fill:#FFFFFF;}
	.st1{fill:none;stroke:#FFFFFF;stroke-width:2.8561;stroke-miterlimit:10;}
</style>
<g id="XMLID_122_">
	<g id="XMLID_13271_">
		<path id="XMLID_12_" class="st0" d="M36.5,38.4H41v19.4h6.6v4.3H36.5V38.4z"/>
		<path id="XMLID_9_" class="st0" d="M60.4,44.2c1.7,0,3.2,0.4,4.7,1.2c1.5,0.8,2.6,2,3.4,3.4c0.8,1.4,1.2,2.9,1.2,4.6
			c0,1.7-0.4,3.2-1.2,4.6c-0.8,1.4-1.9,2.6-3.4,3.4c-1.4,0.8-3,1.2-4.7,1.2c-2.5,0-4.7-0.9-6.4-2.7c-1.8-1.8-2.7-4-2.7-6.5
			c0-2.7,1-5,3-6.8C56.1,45,58.1,44.2,60.4,44.2z M60.5,48.3c-1.4,0-2.5,0.5-3.4,1.4c-0.9,1-1.4,2.2-1.4,3.6c0,1.5,0.4,2.8,1.3,3.7
			c0.9,0.9,2,1.4,3.4,1.4c1.4,0,2.5-0.5,3.4-1.4c0.9-1,1.4-2.2,1.4-3.7c0-1.5-0.5-2.7-1.3-3.7C63,48.8,61.9,48.3,60.5,48.3z"/>
		<path id="XMLID_6_" class="st0" d="M87.9,44.6h4.4v15c0,3-0.6,5.1-1.8,6.5c-1.6,1.9-4,2.8-7.2,2.8c-1.7,0-3.2-0.2-4.3-0.6
			c-1.2-0.4-2.2-1.1-3-1.9c-0.8-0.8-1.4-1.8-1.8-3H79c0.4,0.5,1,0.9,1.7,1.1c0.7,0.3,1.5,0.4,2.4,0.4c1.2,0,2.1-0.2,2.9-0.5
			c0.7-0.4,1.2-0.8,1.5-1.4c0.3-0.6,0.4-1.6,0.4-3c-0.8,0.8-1.6,1.3-2.4,1.7c-0.8,0.3-1.8,0.5-2.9,0.5c-2.4,0-4.3-0.8-6-2.5
			c-1.6-1.7-2.4-3.8-2.4-6.4c0-2.8,0.9-5,2.6-6.7c1.6-1.5,3.4-2.3,5.6-2.3c1,0,2,0.2,2.9,0.6c0.9,0.4,1.8,1,2.7,1.8V44.6z
			 M83.3,48.3c-1.4,0-2.5,0.5-3.4,1.4c-0.9,0.9-1.4,2.1-1.4,3.5c0,1.5,0.5,2.7,1.4,3.6c0.9,0.9,2.1,1.4,3.5,1.4
			c1.4,0,2.5-0.5,3.4-1.4c0.9-0.9,1.3-2.1,1.3-3.6c0-1.5-0.4-2.6-1.3-3.6C85.9,48.7,84.7,48.3,83.3,48.3z"/>
		<path id="XMLID_3_" class="st0" d="M53.4,68.4c0.8,0,1.4,0.3,2,0.8c0.6,0.6,0.8,1.2,0.8,2c0,0.8-0.3,1.5-0.8,2
			c-0.5,0.6-1.2,0.8-2,0.8c-0.8,0-1.4-0.3-2-0.8c-0.6-0.6-0.8-1.2-0.8-2.1c0-0.8,0.3-1.4,0.8-2C52,68.7,52.6,68.4,53.4,68.4z
			 M51.2,75.6h4.4v17.5h-4.4V75.6z"/>
		<path id="XMLID_1_" class="st0" d="M61.2,75.6h4.4v1.8c1-0.8,1.9-1.4,2.7-1.8c0.8-0.3,1.6-0.5,2.5-0.5c1.7,0,3.2,0.6,4.4,1.8
			c1,1,1.5,2.6,1.5,4.6v11.6h-4.4v-7.7c0-2.1-0.1-3.5-0.3-4.2s-0.5-1.2-1-1.6c-0.5-0.4-1-0.5-1.7-0.5c-0.9,0-1.7,0.3-2.3,0.9
			c-0.6,0.6-1.1,1.4-1.3,2.5c-0.1,0.5-0.2,1.7-0.2,3.6v7h-4.4V75.6z"/>
	</g>
	<circle id="XMLID_136_" class="st1" cx="65.5" cy="66.3" r="60"/>
</g>
</svg>
