<?xml version="1.0" encoding="utf-8"?>
<!-- Generator: Adobe Illustrator 19.2.1, SVG Export Plug-In . SVG Version: 6.00 Build 0)  -->
<svg version="1.1" id="Capa_1" xmlns="http://www.w3.org/2000/svg" xmlns:xlink="http://www.w3.org/1999/xlink" x="0px" y="0px"
	 viewBox="0 0 28.8 28.8" style="enable-background:new 0 0 28.8 28.8;" xml:space="preserve">
<style type="text/css">
	.st0{fill:#FFFFFF;}
</style>
<g>
	<polygon class="st0" points="9.9,21.2 8.8,19.3 6.5,19.8 9.6,14.3 3.5,14.3 3.5,28.8 13.8,28.8 13.8,14.3 	"/>
	<path class="st0" d="M27,7.3h-6.9c0.4-0.2,0.8-0.4,1.1-0.7c1.2-0.9,1.9-2,1.9-3.1c0-0.9-0.4-2.2-1-2.7C21.4,0.3,20.5,0,19.7,0
		c-0.9,0-1.8,0.3-2.6,0.8c-1.1,0.8-2,2.4-2.6,3.6c0,0.1-0.1,0.1-0.1,0.2c-0.2-0.5-0.5-1.4-0.8-1.9C13,2,12.4,1.3,11.7,0.8
		C10.9,0.3,10,0,9.1,0C8.2,0,7.3,0.4,6.7,1C6,1.6,5.6,2.9,5.6,3.9c0,0.6,0.2,1.1,0.5,1.7c0.4,0.7,1.1,1.3,2,1.7H1.8l0,5.8h11.9V7.3
		h1.4v5.8H27L27,7.3z M8.5,5.5C8,5.2,7.7,4.9,7.6,4.7c-0.2-0.3-0.2-0.7-0.2-1c0-0.4,0.2-1.1,0.5-1.4C8.2,2,8.7,1.8,9.1,1.8h0
		c0.5,0,1.1,0.2,1.6,0.5c0.8,0.5,1.5,1.9,2,3c0.3,0.5,0.5,1.1,0.6,1.6C10.9,6.6,9.4,6.1,8.5,5.5z M16.6,4.3c0.4-0.6,0.9-1.6,1.5-2
		c0.5-0.3,1-0.5,1.6-0.5h0c0.4,0,0.9,0.2,1.1,0.4c0.3,0.3,0.4,0.7,0.4,1.1c0,0.4-0.2,1.3-1.1,2c-0.9,0.6-2.4,1.3-4.7,1.7
		C15.6,6.1,16.1,5.1,16.6,4.3z"/>
	<polygon class="st0" points="22.3,19.7 19.9,19.3 18.8,21.2 15,14.3 15,28.8 25.3,28.8 25.3,14.3 19.2,14.3 	"/>
</g>
</svg>
