<svg id="Layer_1" data-name="Layer 1" xmlns="http://www.w3.org/2000/svg" viewBox="0 0 49.92 56.38"><defs><style>.cls-1{fill:#512c1d;}.cls-2{fill:#231f20;}</style></defs><title>rotiboylogobrown</title><g id="_Group_" data-name="&lt;Group&gt;"><g id="_Group_2" data-name="&lt;Group&gt;"><path id="_Path_" data-name="&lt;Path&gt;" class="cls-1" d="M22.37,20.42a2.62,2.62,0,0,0-1.34-.7,1.83,1.83,0,0,0-1.59.63A2.34,2.34,0,0,1,20.87,20,9.86,9.86,0,0,1,22.37,20.42Z" transform="translate(-2 -1.19)"/><path id="_Path_2" data-name="&lt;Path&gt;" class="cls-1" d="M18.9,22.37A2.1,2.1,0,0,1,20.35,22a4.08,4.08,0,0,1,2.38,1,2.74,2.74,0,0,0-2.08-1.61A1.73,1.73,0,0,0,18.9,22.37Z" transform="translate(-2 -1.19)"/><path id="_Path_3" data-name="&lt;Path&gt;" class="cls-1" d="M31,24.14a2.15,2.15,0,0,0-1.26-1.64,3.07,3.07,0,0,0-2.54.88,3.67,3.67,0,0,1,2.51-.18A3.23,3.23,0,0,1,31,24.14Z" transform="translate(-2 -1.19)"/><path id="_Path_4" data-name="&lt;Path&gt;" class="cls-1" d="M30.8,21.64A5.09,5.09,0,0,0,30.24,21,2.15,2.15,0,0,0,28,21a2.66,2.66,0,0,1,1.58,0A6.91,6.91,0,0,1,30.8,21.64Z" transform="translate(-2 -1.19)"/><path id="_Path_5" data-name="&lt;Path&gt;" class="cls-1" d="M25.68,24.93l-2.28-.28a1.51,1.51,0,0,0,1,.47A4.51,4.51,0,0,0,25.68,24.93Z" transform="translate(-2 -1.19)"/><path id="_Compound_Path_" data-name="&lt;Compound Path&gt;" class="cls-1" d="M19.17,42.61s0.11-.82-1-0.77-1,.61-1,0.71a0.88,0.88,0,0,0,.86.67A1,1,0,0,0,19.17,42.61Zm-1.56-.06s-0.08-.41.5-0.43a0.42,0.42,0,0,1,.52.45s0,0.3-.52.32A0.39,0.39,0,0,1,17.6,42.55Z" transform="translate(-2 -1.19)"/><path id="_Compound_Path_2" data-name="&lt;Compound Path&gt;" class="cls-1" d="M28.28,41.56a1,1,0,0,0,1.14-.61s0.11-.82-1-0.76-1,.61-1,0.71A0.89,0.89,0,0,0,28.28,41.56Zm0.07-1.1a0.42,0.42,0,0,1,.52.45s0,0.3-.52.32-0.5-.34-0.5-0.34S27.77,40.48,28.35,40.46Z" transform="translate(-2 -1.19)"/><path id="_Path_6" data-name="&lt;Path&gt;" class="cls-1" d="M28.57,35.61a1.28,1.28,0,0,0-.52.34,1.32,1.32,0,0,0-.54.37l-0.64.19c-0.37.11-.08,0.32-0.08,0.32a1.38,1.38,0,0,0,.22,0,3.55,3.55,0,0,0,.49-0.22c0.19-.09.86-0.52,1-0.62s0.63-.5.63-0.5l-0.37.06Z" transform="translate(-2 -1.19)"/><path id="_Path_7" data-name="&lt;Path&gt;" class="cls-1" d="M34.7,33.55A0.53,0.53,0,0,0,34.76,33a1.48,1.48,0,0,0-.42-0.32,3.1,3.1,0,0,1-.45-0.31l0,0a1.32,1.32,0,0,0,.32.41,1.25,1.25,0,0,1,.3.17,0.32,0.32,0,0,1,.06.41,4.43,4.43,0,0,1-.69.61,5.62,5.62,0,0,0-.68.67l0.25-.12L34,34.06S34.51,33.67,34.7,33.55Z" transform="translate(-2 -1.19)"/><path id="_Path_8" data-name="&lt;Path&gt;" class="cls-1" d="M37.27,33.15A1.37,1.37,0,0,0,36.75,33a2.62,2.62,0,0,1-.63-0.12,2.89,2.89,0,0,1-.36-0.26,0.71,0.71,0,0,0-.59-0.09,0.73,0.73,0,0,0-.21.78,0.5,0.5,0,0,0,.28.27,0.66,0.66,0,0,0,.2,0,0.4,0.4,0,0,1,.32.27c0.09,0.2.16,0.28,0.55,0.21a1.66,1.66,0,0,1,.87.18l4.26,1,0.14,0.07-0.11.09a3.08,3.08,0,0,0-1.74,1.17,1.22,1.22,0,0,0-.15.56s0,0.09-.15.14a0.13,0.13,0,0,0-.09.2c0.07,0,.13,0,0.12.09s-0.13.2-.14,0.3a1.18,1.18,0,0,1-.09.38,1.14,1.14,0,0,0,.11.49c0,0.08.1,0,.1,0a1.53,1.53,0,0,1,.2-0.91,2.54,2.54,0,0,1,1.79-1.77,6.07,6.07,0,0,1,1.73-.41,1.88,1.88,0,0,1,.53.24,0.34,0.34,0,0,0,.42-0.25,0.59,0.59,0,0,1,.41,0c0.08,0,0-.1,0-0.1a0.48,0.48,0,0,1,.49-0.07,0.2,0.2,0,0,1-.16.16c-0.1,0-.28.15-0.18,0.17a1,1,0,0,1,.24.33c0.21,0.24.74,1.25,0.83,1.4s0.07,0.71.14,0.89a2.27,2.27,0,0,1,.07.59l-0.21.19c-0.09.08-.06,0.29,0.09,0.27a1.66,1.66,0,0,1,.6,0c0.15,0,.19.18,0.36,0.24s0.29-.24.29-0.31a0.79,0.79,0,0,1,.21-0.26,0.7,0.7,0,0,1-.23,0c-0.08,0-.14-0.16,0-0.26a0.63,0.63,0,0,0,.36-0.46,0.76,0.76,0,0,0-.27-0.47A1.25,1.25,0,0,1,47,37.54a2.11,2.11,0,0,0-.6-0.93,0.37,0.37,0,0,1-.12-0.28,0.93,0.93,0,0,0-.46-0.14s-0.06.11-.07-0.08a0.3,0.3,0,0,0-.14-0.26s-0.06,0,0,.11-0.2,0-.2,0a0.57,0.57,0,0,1-.19-0.16,0.33,0.33,0,0,1,.15-0.34c0.12-.08.16-0.25-0.09-0.27s-0.76-.16-1-0.2-1.85-.46-1.85-0.46l-4.14-1.11S37.41,33.21,37.27,33.15Z" transform="translate(-2 -1.19)"/><path id="_Compound_Path_3" data-name="&lt;Compound Path&gt;" class="cls-1" d="M19.43,27.62l0.09,0a25.27,25.27,0,0,0,2.8,5.27,4,4,0,0,0,2.59,1.81,2.56,2.56,0,0,0,1.61-.5c1.54-1.25,2.63-4.85,2.63-4.85l0.09,0.56a2.41,2.41,0,0,0,.15-0.82,8.93,8.93,0,0,0-.33-1.36c0,0.34,0,1.08,0,1.08-1.25-1.87-5.34-2.37-5.9-2.43a8.3,8.3,0,0,0-3.75.62c0-.15.15-1.08,0.15-1.08a4.3,4.3,0,0,0-.6,1.44,2.56,2.56,0,0,0,.32,1.46Zm4.5-.3A12.23,12.23,0,0,1,29,29.09a7.15,7.15,0,0,1-2.63,4.12,2.42,2.42,0,0,1-3-.17,12.32,12.32,0,0,1-3.26-5.22l0-.19A8.23,8.23,0,0,1,23.93,27.32Z" transform="translate(-2 -1.19)"/><path id="_Compound_Path_4" data-name="&lt;Compound Path&gt;" class="cls-1" d="M4,37.3a12.61,12.61,0,0,1,1.15-.76,6.77,6.77,0,0,0,.92-0.64c0.17-.13.61-0.42,0.61-0.42l0.25-.18A0.61,0.61,0,0,1,7.55,35l0,0.28,0.27,0.29c0.16-.1.25,0,0.25,0.23a0.78,0.78,0,0,0,.24.48,0.36,0.36,0,0,1,.28,0l0.5,0.57,0.41,0.18,0.62,0.49,0.28,0L10.64,38,11,38,11,38.14l0.52,0.15,0-.2A9.45,9.45,0,0,1,11,37.28a2.61,2.61,0,0,0-.82-0.83,4.77,4.77,0,0,1-.89-1s-0.57-.52-0.7-0.62a0.18,0.18,0,0,1-.05-0.24c0.39-.34,3.22-0.23,3.49-0.2a3.51,3.51,0,0,1,.66.18s0.76,0.26,1.22.37,0.53-.62.53-0.62a1.51,1.51,0,0,1,.77,0,18.38,18.38,0,0,1,2.42.91c0.41,0.28,1.79,1,1.79,1a8.22,8.22,0,0,1,1.95,1A10.06,10.06,0,0,1,22,38.55l-6.39.62a10.15,10.15,0,0,0-.42,3l0.29,0.18a5.94,5.94,0,0,1,.82-2.48l3.11-.12,2.75-.13,4.46-.43,0.46-.26,0.49-.35,1-.69L29,37.55l0.43-.28,0.47-.19,1.25-.95-1.12.7-0.32,0,0.43-.47,0.34-.08,0.25-.21,0.27-.3,0.3-.05,0.36-.36A1.66,1.66,0,0,1,32,35.2a3.41,3.41,0,0,0,.73-0.48c0.13-.13,1.24-1.07,1.24-1.07l-0.29.08-0.08.16-0.47.31a7.39,7.39,0,0,0-1.32.76,0.38,0.38,0,0,1-.25.25,2.72,2.72,0,0,0-.7.42,1,1,0,0,0-.6.41,5.6,5.6,0,0,0-1.35.73c-0.57.32-2.3,1.46-2.3,1.46L23,38.44a4.35,4.35,0,0,0-.65-1.06,7.3,7.3,0,0,0-1-1.09,7.67,7.67,0,0,0-1.51-.78c-0.58-.26-3.7-1.92-3.7-1.92a0.48,0.48,0,0,1-.37-0.31,2.1,2.1,0,0,1,.82-1,2.58,2.58,0,0,1,1.18.47,4.75,4.75,0,0,0,.39.34c0.2,0.16,1,.78,1.27.93s0.73,0.55,1,.76,0.75,0.73.75,0.73a4.12,4.12,0,0,0,.44.37,4.71,4.71,0,0,0,.65.23c0.31,0.11,1.15.19,1.33,0.31a2.44,2.44,0,0,0,.95.1,7.42,7.42,0,0,0,2.87-.67,6.71,6.71,0,0,0,1.14-.65c0.67-.16.51-0.17,0.69-0.45a1,1,0,0,1,.61-0.45c0.29,0,.18-0.46.18-0.46a1.38,1.38,0,0,0-.75.26,1,1,0,0,0-.75.13c-0.75.11-.71,0.72-1.11,0.75s-1.09.44-1.47,0.46c-2.28.13-3.41-.33-3.67-0.54a4.66,4.66,0,0,0-1.22-.41,5.21,5.21,0,0,0-.93-1,15.74,15.74,0,0,0-1.35-.91,3.79,3.79,0,0,1-1.37-1.14,2.33,2.33,0,0,1-.26-0.73,8,8,0,0,1-.49-1.33,13,13,0,0,1-.1-2.33V26.55A3.75,3.75,0,0,1,16.34,25c0.05-.36-0.15-1-0.17-1.75a1,1,0,0,1,.49-1,2.8,2.8,0,0,1,.57-1.77c0.24-1.5.36-1.38,0.57-1.71a0.76,0.76,0,0,1,.7-0.26,7.77,7.77,0,0,1,2.88-.39c0.34,0,1.95.33,2.52,0.41s3.48,0.27,4.59.34,1.17,0.46,1.17.46a5.47,5.47,0,0,1,1.84.39,1.78,1.78,0,0,1,.9.32,0.18,0.18,0,0,0,.08,0c0.71,0.06.7,0.27,0.7,0.27s0.7,0,.62.18l0,0a2.82,2.82,0,0,0-.5,2.13,7.87,7.87,0,0,0,.62,1.9,0.7,0.7,0,0,1,.18.44,0.06,0.06,0,0,1,0,0,2.35,2.35,0,0,0-.37,1.22,3.65,3.65,0,0,0-.6,1.46,2.4,2.4,0,0,1-.25,1.06,4.83,4.83,0,0,0-.37,1.51,1.91,1.91,0,0,1-.31.67,0.86,0.86,0,0,0-.26.68,2,2,0,0,0-.44,1,1.69,1.69,0,0,1-.36.17,0.67,0.67,0,0,0-.29.5,5.89,5.89,0,0,0-.21,1.26l1.46-.41s0.08-.68.1-1.06a3.69,3.69,0,0,1,.72-1.35,3.48,3.48,0,0,1,1.67-1,1.68,1.68,0,0,0,.64-0.47c0.19-.15.77-0.74,0.77-0.74a1.06,1.06,0,0,0,.52-0.37,1.6,1.6,0,0,1,.33-0.51,2.39,2.39,0,0,1,.75-1.16,6.34,6.34,0,0,0,.25-1.91,3,3,0,0,0-.36-1.46,1.77,1.77,0,0,1,0-1.28,7.46,7.46,0,0,0,.16-1.24,2.69,2.69,0,0,0-.51-1.19s-0.05.18,0-.08a9.62,9.62,0,0,0,0-1.27,6.08,6.08,0,0,0-.24-1.4,4.42,4.42,0,0,1-.16-0.81s0.08-1.76.05-2.12A0.7,0.7,0,0,1,37,14.15a6.53,6.53,0,0,0,.82-0.81,5.77,5.77,0,0,1,1.38-.75,0.8,0.8,0,0,0,.47-0.39c0-.47.34-0.44,0.34-0.44,0.54-.55.13-2.42-0.05-2.63a1.27,1.27,0,0,1-.24-0.55,17.07,17.07,0,0,0-1.3-1.33A12.58,12.58,0,0,0,36.7,6a9.54,9.54,0,0,0-1.25-.39L33.66,5A11.19,11.19,0,0,0,31,4.51a3.35,3.35,0,0,1-.76,0,3.2,3.2,0,0,0-1.87,0,2.83,2.83,0,0,1-1.77.46A8.49,8.49,0,0,1,24.21,3.5c-0.47-.36-0.82-0.6-0.82-0.6a3.93,3.93,0,0,1-1.13-.68,1.44,1.44,0,0,0-1-.39c-0.38-.08-0.62-0.23-1.35-0.47a7.31,7.31,0,0,0-3.08-.05,6.29,6.29,0,0,0-3.22,1.28,8.28,8.28,0,0,0-1,1c-0.41.49-.45,2.29-0.45,3a2.51,2.51,0,0,0,.54,1.54,2,2,0,0,0,.76.71c0.77,0.21.89,0.93,1,1.68s0.33,0.62.33,0.62V13a4.82,4.82,0,0,0-.62,1.74c-0.13.32-.24,0.44-0.41,0.83s0,0.52-.13.91a1,1,0,0,0,.05.9,5.46,5.46,0,0,1,.54,1.49,7,7,0,0,1,0,2c-0.67-.13-1.14.81-1.33,1A2.41,2.41,0,0,0,12.48,23c0,0.37.31,0.73,0.28,1.14a2.39,2.39,0,0,0,.24,1A18.36,18.36,0,0,1,13.7,27a1,1,0,0,0,.28.57,0.67,0.67,0,0,1,.32.52,1.26,1.26,0,0,0,.54.55c0.05,0.18.52,0.45,0.9,0.94a4.2,4.2,0,0,1,.29,2,0,0,0,0,1,0,0,0,0,0,0,0,0,0s0-.08-0.18,0S14.76,32.83,14.41,33a1.06,1.06,0,0,0-.21.89c-0.08.24-.32,0-0.32,0a6.4,6.4,0,0,0-.83-0.29c-0.19,0-.16-0.26-0.57-0.47a11.09,11.09,0,0,0-3.25.13A2.49,2.49,0,0,0,8,33.85a2.74,2.74,0,0,0-1.26.72A2,2,0,0,1,6,35a2.43,2.43,0,0,0-.68.62,5.87,5.87,0,0,0-.52.33l-0.76.49,0.55-.2s-0.11.2-.16,0.28a0.26,0.26,0,0,1-.25,0l0,0.18H3.91L3.86,37a0.85,0.85,0,0,0-.31.13,3.5,3.5,0,0,0-.49.68l0.23,0.05A1.9,1.9,0,0,1,4,37.3ZM36.81,24.09a0.38,0.38,0,0,0,.19.34,2,2,0,0,0,.26.91,2.68,2.68,0,0,1-.3,2,0.36,0.36,0,0,1-.36.07c-0.17.75-.5,0.64-0.5,0.64a3.42,3.42,0,0,1-1.4,1.34,1.77,1.77,0,0,0-.8.19,0.55,0.55,0,0,1-.52.11c-0.22-.11.13-0.84,0.35-1.12a2.88,2.88,0,0,0,.3-1.08,2.58,2.58,0,0,1,.3-0.36,0.9,0.9,0,0,0,.15-0.43c0.28-.13.41,0.15,0.34,0.37a3,3,0,0,1-.34.67c-0.17.28,0.25,0.73,0.67,0.35s0.37-2.52.37-2.52c0.58-.21.54,0.26,0.54,0.26a2.74,2.74,0,0,0,.08,1A1.42,1.42,0,0,0,36.82,26a0.46,0.46,0,0,0-.2-0.56,1.19,1.19,0,0,1,.08-0.6,0.32,0.32,0,0,1-.3-0.28C36.13,23.85,36.81,24.09,36.81,24.09ZM16,27.79a0.23,0.23,0,0,1-.25.15,1,1,0,0,1-.37-0.45A0.68,0.68,0,0,0,15,27.32a0.74,0.74,0,0,1-.48-0.46,0.54,0.54,0,0,1-.14-0.43A0.5,0.5,0,0,0,14.08,26a0.21,0.21,0,0,1-.16-0.22c-0.21-.29,0-0.24-0.07-0.55a0.59,0.59,0,0,0-.2-0.41,3,3,0,0,0-.28-1,3.73,3.73,0,0,1,0-1.74,0.5,0.5,0,0,1,.56-0.47,1.07,1.07,0,0,0,.43-0.09,1.33,1.33,0,0,1,.66.84c0.12,0.31,0,.33,0,0.33s-0.08.07-.29-0.14a1,1,0,0,0-.48-0.25c-0.6-.07-0.44.75-0.44,0.75a0.58,0.58,0,0,0-.19.56s0.13,0.24.22,0a0.61,0.61,0,0,1,.68-0.2,1.12,1.12,0,0,1,.35,1.37,1.13,1.13,0,0,0,0,1.15c0.12,0.22.77,0.7,1,1A1.55,1.55,0,0,1,16,27.79Zm-0.66-2.65a0.83,0.83,0,0,1,.24-0.65l0.09,0.35,0.19,0.69s0.1,0.32-.11.3A0.58,0.58,0,0,1,15.36,25.14ZM15,17.33c-0.08-.31-0.34-0.27.15-0.82a5.06,5.06,0,0,1,.21-1.33A2.24,2.24,0,0,0,16,14.07,8.48,8.48,0,0,0,16.17,12a1.45,1.45,0,0,1,.25-0.49c0.19-.23,0-1.89.26-2.18A6,6,0,0,1,18,8.49c0.4-.23.67-0.19,1-0.37a1.15,1.15,0,0,0,.1-1.33c-0.26-.08-1-0.37-1-0.08,0,0-.57-0.2-0.46.19l-0.23-.05,0,0.28-0.23.05a7.14,7.14,0,0,1-1.44,1,4.18,4.18,0,0,1-1.52,0,2,2,0,0,1-.49-0.23,1.41,1.41,0,0,1,0-1.58,2.87,2.87,0,0,0,.08-0.84c0-.39-0.28-1,0.5-1.08a4.84,4.84,0,0,0,1.54-.65,3.32,3.32,0,0,1,.78-0.41,5.58,5.58,0,0,0,.82-0.29s0.46-.09.8-0.2a1.83,1.83,0,0,1,1.27-.06A11.86,11.86,0,0,0,21.23,4a3.21,3.21,0,0,0,.94.65,10.86,10.86,0,0,0,2,.62,1,1,0,0,1,.81.44,0.3,0.3,0,0,1,.24.41,1.62,1.62,0,0,0-1.1.13c-0.23.28,0,.55,0.34,0.78A2.42,2.42,0,0,0,26,7.19a2.68,2.68,0,0,1,1,0l1.27-.07a4.89,4.89,0,0,0,1.11-.47A1,1,0,0,1,30,6.38a3.4,3.4,0,0,0,1.54-.13,1.3,1.3,0,0,1,1.2-.13,7.37,7.37,0,0,0,1.45.21,3.76,3.76,0,0,1,2.75,1,5.82,5.82,0,0,1,1.8,1.59,0.93,0.93,0,0,1,.52.85,3.42,3.42,0,0,1-2.28,2,12.69,12.69,0,0,1-1.62.49,3.32,3.32,0,0,1-1.76.49s-0.93.07-.9,0.49,1.43,0.24,1.43.24a2.24,2.24,0,0,0,.9.28,6.14,6.14,0,0,0,.33.83c0.14,0.21-.16,1.22,0,1.84a6.22,6.22,0,0,1,.34,1.53c0,0.62,0,.94-0.24,1a8.47,8.47,0,0,1-1.63-.05,13.81,13.81,0,0,1-2.36-.44,4,4,0,0,0-1.35-.5c-0.36-.05-1.57-0.28-2.56-0.41s-5-.6-5.61-0.57a24.4,24.4,0,0,0-3.12.21,10.25,10.25,0,0,0-1.47.2,1.86,1.86,0,0,0-1.07.37A2.19,2.19,0,0,1,15,17.33Z" transform="translate(-2 -1.19)"/></g><g id="_Group_3" data-name="&lt;Group&gt;"><polygon id="_Path_9" data-name="&lt;Path&gt;" class="cls-2" points="10.72 53.94 9.81 54.87 10.63 55.73 11.38 55.73 10.41 54.87 11.52 53.94 10.72 53.94"/><path id="_Path_10" data-name="&lt;Path&gt;" class="cls-2" d="M17.06,56.2V55.91H15.52a0.52,0.52,0,0,1,.42-0.5l1.1,0V55.14s-1,0-1.24,0a1,1,0,0,0-.91.85v0.15a1,1,0,0,0,.91.85C16,57,17,57,17,57V56.72l-1.1,0a0.52,0.52,0,0,1-.42-0.5h1.54Z" transform="translate(-2 -1.19)"/><path id="_Path_11" data-name="&lt;Path&gt;" class="cls-2" d="M40.33,56.2V55.91H38.79a0.52,0.52,0,0,1,.42-0.5l1.09,0V55.14s-1,0-1.24,0a1,1,0,0,0-.91.85v0.15a1,1,0,0,0,.91.85c0.2,0,1.24,0,1.24,0V56.72l-1.09,0a0.52,0.52,0,0,1-.42-0.5h1.54Z" transform="translate(-2 -1.19)"/><path id="_Path_12" data-name="&lt;Path&gt;" class="cls-2" d="M20.07,56.63H18.6V56.9h1.66a0.54,0.54,0,0,0,.66-0.57,0.49,0.49,0,0,0-.33-0.39H19.48s-0.42,0-.42-0.21a0.34,0.34,0,0,1,.21-0.33h1.49V55.14H19.07a0.52,0.52,0,0,0-.54.49,0.41,0.41,0,0,0,0,.08l0,0.14a0.66,0.66,0,0,0,.47.31h0.92s0.41-.07.41,0.22A0.25,0.25,0,0,1,20.07,56.63Z" transform="translate(-2 -1.19)"/><path id="_Path_13" data-name="&lt;Path&gt;" class="cls-2" d="M24.74,56.9V55.56c0-.37-0.68-0.36-0.68-0.36h-1V54.47H22.48V56.9h0.6V55.53H23.8a0.29,0.29,0,0,1,.32.24V56.9h0.61Z" transform="translate(-2 -1.19)"/><path id="_Compound_Path_5" data-name="&lt;Compound Path&gt;" class="cls-2" d="M27.61,57a1,1,0,1,0-1.32-1A1.18,1.18,0,0,0,27.61,57Zm0-1.54a0.61,0.61,0,0,1,.66.55,0.62,0.62,0,0,1-.65.58A0.57,0.57,0,1,1,27.59,55.47Z" transform="translate(-2 -1.19)"/><path id="_Compound_Path_6" data-name="&lt;Compound Path&gt;" class="cls-2" d="M30.35,55.09v2.48H31V56.9h1.15a0.92,0.92,0,0,0,.63-0.63,1,1,0,0,0-.69-1.18H30.35Zm1.84,1.19a0.49,0.49,0,0,1-.4.32H31V55.53h0.74A0.55,0.55,0,0,1,32.19,56.28Z" transform="translate(-2 -1.19)"/><path id="_Compound_Path_7" data-name="&lt;Compound Path&gt;" class="cls-2" d="M34.9,56.9H36a0.92,0.92,0,0,0,.63-0.63A1,1,0,0,0,36,55.09H34.27v2.48H34.9V56.9Zm0-1.37h0.74a0.55,0.55,0,0,1,.44.75,0.5,0.5,0,0,1-.4.32H34.93V55.53Z" transform="translate(-2 -1.19)"/><path id="_Compound_Path_8" data-name="&lt;Compound Path&gt;" class="cls-2" d="M5.35,55.14a1,1,0,0,0-.52-0.69l-0.48,0H2.51V57s1.75,0,1.88,0a2.53,2.53,0,0,0,.5-0.06,0.62,0.62,0,0,0,.49-0.58A0.56,0.56,0,0,0,5,55.76,0.77,0.77,0,0,0,5.35,55.14Zm-1,1.5H3.09v-0.7s1,0,1.26,0a0.39,0.39,0,0,1,.43.37A0.51,0.51,0,0,1,4.32,56.64Zm0-1.11H3.09v-0.7s1,0,1.26,0a0.39,0.39,0,0,1,.43.37A0.51,0.51,0,0,1,4.32,55.53Z" transform="translate(-2 -1.19)"/><path id="_Compound_Path_9" data-name="&lt;Compound Path&gt;" class="cls-2" d="M7,56.43c0,0.56.71,0.5,0.71,0.5l1.65,0V55.51a0.93,0.93,0,0,0-.63-0.39H7.11v0.27H8.31a0.57,0.57,0,0,1,.55.49H7.72A0.66,0.66,0,0,0,7,56.43Zm1.81-.26v0.5H7.74a0.25,0.25,0,0,1-.26-0.25,0.28,0.28,0,0,1,.29-0.26h1Z" transform="translate(-2 -1.19)"/><rect id="_Path_14" data-name="&lt;Path&gt;" class="cls-2" x="9.13" y="53.22" width="0.6" height="2.55"/></g><g id="_Group_4" data-name="&lt;Group&gt;"><path id="_Compound_Path_10" data-name="&lt;Compound Path&gt;" class="cls-1" d="M4.46,50.69a1.65,1.65,0,0,1-1.64.89,1.85,1.85,0,0,1-.82.79l3.51,0.26,0.75-1.12H4.31S5.55,51,6.11,48.67H7l1.53,2.54L9,52a1.09,1.09,0,0,0,1.53.49,13.22,13.22,0,0,0,1.2-1.08V51.1l-1.08.75s-0.45.26-.93-0.67-1.5-2.76-1.5-2.76,2.13-1,2.31-2.76a2,2,0,0,0-1.86-1.34,10.85,10.85,0,0,0-3.73.07A3.33,3.33,0,0,0,2.3,46.66a3.91,3.91,0,0,0-.11.82l1-.52s-0.26-2,2.39-2.39a4.15,4.15,0,0,1-.11,1.34C5.32,46.88,4.46,50.69,4.46,50.69Zm2.39-6.19s0.67,0,1,.08a1.47,1.47,0,0,1,1.31,1.27,2.22,2.22,0,0,1-1,2.16,2.88,2.88,0,0,1-1.94.26A23.19,23.19,0,0,0,6.85,44.49Z" transform="translate(-2 -1.19)"/><path id="_Compound_Path_11" data-name="&lt;Compound Path&gt;" class="cls-1" d="M17.49,47.66c-0.67-1.86-2.66-1.18-3.28-.82a4.76,4.76,0,0,0-2.31,3.81,2.47,2.47,0,0,0,.19,1.08c0.56,1.34,2.3,1,2.65.86A4.85,4.85,0,0,0,17.49,47.66Zm-2.72,4.56a1,1,0,0,1-1.38-.49,3.43,3.43,0,0,1-.22-1.64,0.84,0.84,0,0,1,.08-0.56,3,3,0,0,1,1.45-2.42,1.11,1.11,0,0,1,1.57.93C16.32,48.4,16.26,51.18,14.76,52.22Z" transform="translate(-2 -1.19)"/><path id="_Compound_Path_12" data-name="&lt;Compound Path&gt;" class="cls-1" d="M40.45,47.66c-0.67-1.86-2.66-1.18-3.28-.82a4.76,4.76,0,0,0-2.31,3.81A2.55,2.55,0,0,0,35,51.73c0.56,1.34,2.31,1,2.65.86A4.85,4.85,0,0,0,40.45,47.66Zm-2.72,4.56a1,1,0,0,1-1.38-.49,3.44,3.44,0,0,1-.22-1.64,0.84,0.84,0,0,1,.08-0.56,3,3,0,0,1,1.45-2.42,1.11,1.11,0,0,1,1.57.93C39.29,48.4,39.22,51.18,37.73,52.22Z" transform="translate(-2 -1.19)"/><path id="_Path_15" data-name="&lt;Path&gt;" class="cls-1" d="M20.7,47h1.83l0.34-.67h-2l0.41-1.72L20,44.83l-0.37,1.6h-0.9L18.5,47h1a44.17,44.17,0,0,0-.9,4.33c0,0.9.37,1.45,0.94,1.42,0.19,0,.67.15,2-1.16l0.08-.48A3.64,3.64,0,0,1,20.4,52c-0.34,0-.9-0.11-0.56-1.64C20,49.8,20.7,47,20.7,47Z" transform="translate(-2 -1.19)"/><path id="_Path_16" data-name="&lt;Path&gt;" class="cls-1" d="M26.75,43.3A8,8,0,0,1,25,44.38l-0.11.67,1.42-.6Z" transform="translate(-2 -1.19)"/><path id="_Path_17" data-name="&lt;Path&gt;" class="cls-1" d="M26.63,51.44l0-.45a13.78,13.78,0,0,1-1.35,1.08c-0.3.15-.78,0.15-0.48-0.93S26,46.36,26,46.36l-2.76.93,0,0.3,1.19-.22-0.71,3.92s-0.22,1.42.52,1.49a1.83,1.83,0,0,0,1.08-.26A9.9,9.9,0,0,0,26.63,51.44Z" transform="translate(-2 -1.19)"/><path id="_Compound_Path_13" data-name="&lt;Compound Path&gt;" class="cls-1" d="M33.09,43.75L33.8,43a4.11,4.11,0,0,0-3.66.93c-0.37.35-.89,0.93-1.57,3.62-0.37,1.49-1.2,5.15-1.2,5.15h2.54s1.83,0.08,3.28-3.21c0.22-.49.75-3-0.63-3.14-0.45,0-1.19.19-2.57,1.79a12.57,12.57,0,0,0-.82,1.34s0.48-3.92,1.27-5S32,43,33.09,43.75Zm-2.46,4.44c0.47-.5,1.49-1.46,1.57-0.34s0.07,3.39-1.79,4.22a1.7,1.7,0,0,1-1.64-.22s0-.3.07-0.52a1.23,1.23,0,0,1,.08-0.3S28.95,50,30.63,48.19Z" transform="translate(-2 -1.19)"/><path id="_Path_18" data-name="&lt;Path&gt;" class="cls-1" d="M44.59,51.47c-0.75.41-.6-2.24-0.6-2.24s-0.22-2.61-.67-2.87-1.57.75-1.57,0.75l-0.64.59v0.56a5.9,5.9,0,0,1,.9-1c0.3-.26.52,0,0.56,0.56s0.15,2.28.26,2.88,0.19,2,.89,2.09c0.44,0.07,1.23-.74,1.68-1.49S46,50.2,46,50.2l0.15-.11S45,54.35,44.85,54.91a1.46,1.46,0,0,1-2,1,1.23,1.23,0,0,1-.52-0.41l-0.67.75a6,6,0,0,0,1.87.3,4,4,0,0,0,2.39-2.13c0.26-.52,1.72-5.56,2.31-7.8h-1S45.9,50.75,44.59,51.47Z" transform="translate(-2 -1.19)"/><path id="_Compound_Path_14" data-name="&lt;Compound Path&gt;" class="cls-1" d="M51.19,46.32l-0.35-.5a0.45,0.45,0,0,0,.21-0.1,0.34,0.34,0,0,0,.12-0.26,0.37,0.37,0,0,0-.08-0.23,0.4,0.4,0,0,0-.2-0.14,1.53,1.53,0,0,0-.39,0H49.83v0l0.14,0a0.09,0.09,0,0,1,0,0,0.43,0.43,0,0,1,0,.15v1a0.45,0.45,0,0,1,0,.15l0,0-0.14,0v0h0.75v0l-0.14,0-0.05,0a0.43,0.43,0,0,1,0-.15V45.85h0.1l0.47,0.66h0.46v0a0.18,0.18,0,0,1-.1,0Zm-0.42-.67a0.22,0.22,0,0,1-.12.1,0.73,0.73,0,0,1-.22,0H50.37V45.14h0.12a0.34,0.34,0,0,1,.25.08,0.33,0.33,0,0,1,.08.24A0.35,0.35,0,0,1,50.77,45.65Z" transform="translate(-2 -1.19)"/><path id="_Compound_Path_15" data-name="&lt;Compound Path&gt;" class="cls-1" d="M51.92,45.83a1.35,1.35,0,1,0-1.35,1.36A1.35,1.35,0,0,0,51.92,45.83ZM50.57,47a1.19,1.19,0,1,1,1.19-1.19A1.19,1.19,0,0,1,50.57,47Z" transform="translate(-2 -1.19)"/></g></g></svg>