<?xml version="1.0" encoding="UTF-8" standalone="no"?>
<!-- Created with Inkscape (http://www.inkscape.org/) -->

<svg
   xmlns:dc="http://purl.org/dc/elements/1.1/"
   xmlns:cc="http://creativecommons.org/ns#"
   xmlns:rdf="http://www.w3.org/1999/02/22-rdf-syntax-ns#"
   xmlns:svg="http://www.w3.org/2000/svg"
   xmlns="http://www.w3.org/2000/svg"
   xmlns:sodipodi="http://sodipodi.sourceforge.net/DTD/sodipodi-0.dtd"
   xmlns:inkscape="http://www.inkscape.org/namespaces/inkscape"
   version="1.1"
   id="svg10"
   xml:space="preserve"
   width="261.33386"
   height="71.95652"
   viewBox="0 0 261.33386 71.95652"
   sodipodi:docname="RRotiboyLogo.svg"
   inkscape:version="0.92.1 r15371"><metadata
     id="metadata16"><rdf:RDF><cc:Work
         rdf:about=""><dc:format>image/svg+xml</dc:format><dc:type
           rdf:resource="http://purl.org/dc/dcmitype/StillImage" /><dc:title></dc:title></cc:Work></rdf:RDF></metadata><defs
     id="defs14"><clipPath
       clipPathUnits="userSpaceOnUse"
       id="clipPath26"><path
         d="M 0,232.488 H 458.971 V 0 H 0 Z"
         id="path24"
         inkscape:connector-curvature="0" /></clipPath><clipPath
       clipPathUnits="userSpaceOnUse"
       id="clipPath78"><path
         d="M 0,232.488 H 458.971 V 0 H 0 Z"
         id="path76"
         inkscape:connector-curvature="0" /></clipPath></defs><sodipodi:namedview
     pagecolor="#ffffff"
     bordercolor="#666666"
     borderopacity="1"
     objecttolerance="10"
     gridtolerance="10"
     guidetolerance="10"
     inkscape:pageopacity="0"
     inkscape:pageshadow="2"
     inkscape:window-width="1920"
     inkscape:window-height="1001"
     id="namedview12"
     showgrid="false"
     inkscape:zoom="2.6065861"
     inkscape:cx="241.4154"
     inkscape:cy="-3.5899891"
     inkscape:window-x="-9"
     inkscape:window-y="-9"
     inkscape:window-maximized="1"
     inkscape:current-layer="g18" /><g
     id="g18"
     inkscape:groupmode="layer"
     inkscape:label="Rotiboy (R) Signage Logo"
     transform="matrix(1.3333333,0,0,-1.3333333,-1.45588,307.26722)"><path
       inkscape:connector-curvature="0"
       id="path30"
       style="fill:#ffffff;fill-opacity:1;fill-rule:nonzero;stroke:none"
       d="m 20.14491,224.03733 c 0,0 2.631,-0.149 3.952,-0.298 1.311,-0.135 4.983,-1.457 5.132,-4.982 0.136,-3.511 -0.743,-6.434 -3.956,-8.495 -3.227,-2.047 -7.623,-1.024 -7.623,-1.024 1.173,2.055 2.495,14.799 2.495,14.799 m -9.386,-24.322 c 0,0 -1.322,-3.513 -6.451,-3.513 0,0 -1.904,-3.084 -3.216,-3.084 l 13.772,-1.023 2.928,4.399 h -7.613 c 0,0 4.834,1.904 7.035,11.139 h 3.51 l 6.006,-9.98 1.756,-2.922 c 0,0 2.057,-4.107 6.011,-1.911 0.999,0.563 4.697,4.257 4.697,4.257 v 1.024 l -4.254,-2.93 c 0,0 -1.756,-1.022 -3.657,2.631 -1.918,3.674 -5.875,10.846 -5.875,10.846 0,0 8.357,4.102 9.089,10.854 0.158,1.457 -3.214,5.134 -7.316,5.261 -2.674,0.101 -8.656,1.329 -14.662,-0.279 -6.007,-1.62 -8.793,-4.555 -10.264,-8.94 -0.366,-1.12 -0.433,-3.221 -0.433,-3.221 l 4.104,2.048 c 0,0 -1.02,7.911 9.386,9.368 0,0 0.281,-1.457 -0.448,-5.26 -0.729,-3.81 -4.105,-18.764 -4.105,-18.764" /><path
       inkscape:connector-curvature="0"
       id="path34"
       style="fill:#ffffff;fill-opacity:1;fill-rule:nonzero;stroke:#ffffff;stroke-opacity:0"
       d="m 51.20591,193.70043 c -1.111,-0.765 -4.311,-0.589 -5.423,1.906 -1.139,2.556 -0.881,4.4 -0.881,6.452 0,2.048 0.298,2.199 0.298,2.199 0,0 0,6.153 5.712,9.518 2.328,1.376 5.562,-0.278 6.155,-3.654 0.247,-1.425 0,-12.319 -5.861,-16.421 m 10.695,17.892 c -2.634,7.314 -10.444,4.623 -12.895,3.212 -8.937,-5.131 -9.083,-14.948 -9.083,-14.948 0,0 -0.2,-2.027 0.729,-4.25 2.2,-5.268 9.05,-4.082 10.409,-3.362 11.867,6.289 11.358,17.896 10.84,19.348" /><path
       inkscape:connector-curvature="0"
       id="path38"
       style="fill:#ffffff;fill-opacity:1;fill-rule:nonzero;stroke:none"
       d="m 141.37481,193.70043 c -1.111,-0.765 -4.314,-0.589 -5.426,1.906 -1.136,2.556 -0.878,4.4 -0.878,6.452 0,2.048 0.298,2.199 0.298,2.199 0,0 0,6.153 5.708,9.518 2.325,1.376 5.566,-0.278 6.158,-3.654 0.248,-1.425 0,-12.319 -5.86,-16.421 m 10.694,17.892 c -2.633,7.314 -10.446,4.623 -12.893,3.212 -8.939,-5.131 -9.088,-14.948 -9.088,-14.948 0,0 -0.183,-2.027 0.732,-4.25 2.197,-5.268 9.06,-4.082 10.406,-3.362 11.871,6.289 11.362,17.896 10.843,19.348" /><path
       inkscape:connector-curvature="0"
       id="path42"
       style="fill:#ffffff;fill-opacity:1;fill-rule:nonzero;stroke:none"
       d="m 74.49891,214.07153 h 7.18 l 1.321,2.645 h -7.905 l 1.601,6.745 -4.979,-0.745 -1.454,-6.291 h -3.529 l -0.878,-2.203 h 4.104 c 0,0 -3.372,-13.483 -3.521,-16.997 -0.135,-3.525 1.471,-5.707 3.672,-5.578 0.727,0.055 2.633,-0.576 7.91,4.555 l 0.296,1.898 c 0,0 -3.672,-3.809 -4.984,-3.667 -1.322,0.15 -3.521,0.447 -2.196,6.453 0.505,2.332 3.362,13.185 3.362,13.185" /><path
       inkscape:connector-curvature="0"
       id="path46"
       style="fill:#ffffff;fill-opacity:1;fill-rule:nonzero;stroke:none"
       d="m 98.24691,228.73553 c 0,0 -5.58,-4.251 -6.887,-4.251 l -0.444,-2.642 5.561,2.344 z" /><path
       inkscape:connector-curvature="0"
       id="path50"
       style="fill:#ffffff;fill-opacity:1;fill-rule:nonzero;stroke:none"
       d="m 97.79871,196.77853 0.15,1.755 c 0,0 -4.105,-3.653 -5.282,-4.242 -1.172,-0.591 -3.07,-0.591 -1.901,3.66 1.176,4.259 4.403,18.765 4.403,18.765 l -10.843,-3.668 -0.149,-1.172 4.688,0.874 -2.783,-15.374 c 0,0 -0.878,-5.579 2.051,-5.858 1.311,-0.142 2.483,0.129 4.24,1.01 1.766,0.888 5.426,4.25 5.426,4.25" /><path
       inkscape:connector-curvature="0"
       id="path54"
       style="fill:#ffffff;fill-opacity:1;fill-rule:nonzero;stroke:none"
       d="m 113.48621,209.52463 c 1.844,1.979 5.86,5.722 6.145,1.328 0.295,-4.392 0.295,-13.328 -7.034,-16.561 -0.965,-0.428 -4.832,-1.024 -6.439,0.879 0,0 0.148,1.182 0.284,2.055 0.147,0.875 0.295,1.173 0.295,1.173 0,0 0.149,4.109 6.749,11.126 m 9.667,17.442 2.783,3.078 c 0,0 -8.209,2.204 -14.365,-3.661 -1.434,-1.369 -3.512,-3.668 -6.146,-14.21 -1.457,-5.836 -4.691,-20.228 -4.691,-20.228 h 9.959 c 0,0 7.182,-0.298 12.894,12.603 0.854,1.924 2.928,11.876 -2.485,12.309 -1.756,0.15 -4.687,-0.731 -10.111,-7.035 -0.989,-1.14 -3.226,-5.274 -3.226,-5.274 0,0 1.904,15.38 4.982,19.638 3.077,4.251 6.006,5.58 10.406,2.78" /><path
       inkscape:connector-curvature="0"
       id="path58"
       style="fill:#ffffff;fill-opacity:1;fill-rule:nonzero;stroke:none"
       d="m 168.28891,196.63013 c -2.929,-1.607 -2.35,8.799 -2.35,8.799 0,0 -0.877,10.258 -2.633,11.288 -1.757,1.031 -6.156,-2.942 -6.156,-2.942 l -2.498,-2.334 v -2.203 c 0,0 1.285,1.858 3.522,3.81 1.177,1.023 2.054,-0.148 2.203,-2.195 0.149,-2.062 0.579,-8.942 1.024,-11.289 0.433,-2.338 0.733,-7.767 3.511,-8.195 1.742,-0.292 4.833,2.922 6.603,5.857 1.756,2.929 2.481,4.4 2.481,4.4 l 0.583,0.433 c 0,0 -4.684,-16.702 -5.267,-18.906 -0.59,-2.197 -3.227,-5.856 -7.763,-4.101 -1.298,0.495 -2.053,1.607 -2.053,1.607 l -2.645,-2.929 c 0,0 5.283,-1.606 7.333,-1.173 2.05,0.441 6.588,2.793 9.382,8.359 1.013,2.048 6.735,21.828 9.087,30.628 h -3.969 c 0,0 -5.23,-16.059 -10.395,-18.914" /><path
       inkscape:connector-curvature="0"
       id="path62"
       style="fill:#ffffff;fill-opacity:1;fill-rule:nonzero;stroke:none"
       d="m 192.57751,219.51093 c -0.108,-0.184 -0.258,-0.321 -0.458,-0.395 -0.197,-0.067 -0.481,-0.094 -0.877,-0.094 h -0.245 v 2.495 h 0.455 c 0.457,0 0.78,-0.116 0.99,-0.325 0.196,-0.191 0.307,-0.517 0.307,-0.949 0,-0.314 -0.06,-0.543 -0.172,-0.732 m 1.657,-2.645 -1.373,1.945 c 0.347,0.088 0.631,0.211 0.818,0.393 0.308,0.272 0.457,0.618 0.457,1.039 0,0.358 -0.101,0.656 -0.299,0.914 -0.209,0.264 -0.467,0.433 -0.789,0.535 -0.322,0.095 -0.83,0.13 -1.521,0.13 h -2.658 v -0.13 c 0.258,0 0.434,-0.028 0.533,-0.08 0.097,-0.042 0.158,-0.11 0.195,-0.191 0.038,-0.082 0.065,-0.271 0.065,-0.583 v -3.734 c 0,-0.327 -0.027,-0.51 -0.065,-0.598 -0.037,-0.067 -0.098,-0.128 -0.195,-0.183 -0.086,-0.045 -0.275,-0.075 -0.533,-0.075 v -0.141 h 2.929 v 0.141 c -0.258,0 -0.444,0.03 -0.542,0.075 -0.089,0.055 -0.163,0.116 -0.198,0.183 -0.041,0.088 -0.061,0.271 -0.061,0.598 v 1.605 h 0.38 l 1.844,-2.602 h 1.803 v 0.156 c -0.149,0 -0.284,0.053 -0.406,0.135 -0.076,0.061 -0.197,0.223 -0.384,0.468" /><path
       inkscape:connector-curvature="0"
       id="path66"
       style="fill:#46281c;fill-opacity:1;fill-rule:nonzero;stroke:none"
       d="m 191.77431,214.11353 c -2.583,0 -4.684,2.088 -4.684,4.685 0,2.582 2.101,4.67 4.684,4.67 2.586,0 4.688,-2.088 4.688,-4.67 0,-2.597 -2.102,-4.685 -4.688,-4.685 m 5.318,4.685 c 0,2.927 -2.376,5.314 -5.318,5.314 -2.928,0 -5.315,-2.387 -5.315,-5.314 0,-2.942 2.387,-5.33 5.315,-5.33 2.942,0 5.318,2.388 5.318,5.33" /></g></svg>