<?xml version="1.0" encoding="utf-8"?>
<!-- Generator: Adobe Illustrator 19.2.1, SVG Export Plug-In . SVG Version: 6.00 Build 0)  -->
<svg version="1.1" baseProfile="basic" id="Layer_1"
	 xmlns="http://www.w3.org/2000/svg" xmlns:xlink="http://www.w3.org/1999/xlink" x="0px" y="0px" viewBox="0 0 128.5 127"
	 xml:space="preserve">
<style type="text/css">
	.st0{opacity:0.8;}
	.st1{fill:#FFFFFF;}
	.st2{fill:none;stroke:#FFFFFF;stroke-width:2.8561;stroke-miterlimit:10;}
</style>
<g id="XMLID_152_" class="st0">
	<g id="XMLID_13255_">
		<path id="XMLID_14_" class="st1" d="M42.5,39.7l-3.3,2.9c-1.2-1.6-2.4-2.4-3.6-2.4c-0.6,0-1.1,0.2-1.5,0.5
			c-0.4,0.3-0.6,0.7-0.6,1.1s0.1,0.8,0.4,1.1c0.4,0.5,1.5,1.5,3.3,3c1.7,1.4,2.8,2.3,3.1,2.7c0.9,0.9,1.6,1.8,1.9,2.7
			c0.4,0.8,0.6,1.8,0.6,2.8c0,1.9-0.7,3.6-2,4.8c-1.3,1.3-3.1,1.9-5.3,1.9c-1.7,0-3.2-0.4-4.4-1.2c-1.3-0.8-2.3-2.1-3.2-3.9l3.8-2.3
			c1.1,2.1,2.5,3.1,3.9,3.1c0.8,0,1.4-0.2,2-0.7c0.5-0.5,0.8-1,0.8-1.6c0-0.5-0.2-1.1-0.6-1.6c-0.4-0.5-1.3-1.4-2.6-2.5
			c-2.6-2.1-4.3-3.7-5-4.9c-0.8-1.1-1.1-2.3-1.1-3.4c0-1.6,0.6-3.1,1.9-4.2c1.3-1.2,2.8-1.8,4.6-1.8c1.2,0,2.3,0.3,3.4,0.8
			C40.1,37.2,41.2,38.2,42.5,39.7z"/>
		<path id="XMLID_11_" class="st1" d="M50.1,35.4c0.8,0,1.4,0.3,2,0.8c0.6,0.6,0.8,1.2,0.8,2c0,0.8-0.3,1.5-0.8,2
			c-0.5,0.6-1.2,0.8-2,0.8c-0.8,0-1.4-0.3-2-0.8c-0.6-0.6-0.8-1.2-0.8-2.1c0-0.8,0.3-1.4,0.8-2C48.6,35.7,49.3,35.4,50.1,35.4z
			 M47.9,42.6h4.4v17.5h-4.4V42.6z"/>
		<path id="XMLID_8_" class="st1" d="M70.9,42.6h4.4v15c0,3-0.6,5.1-1.8,6.5c-1.6,1.9-4,2.8-7.2,2.8c-1.7,0-3.2-0.2-4.3-0.6
			c-1.2-0.4-2.2-1.1-3-1.9c-0.8-0.8-1.4-1.8-1.8-3H62c0.4,0.5,1,0.9,1.7,1.1c0.7,0.3,1.5,0.4,2.4,0.4c1.2,0,2.1-0.2,2.9-0.5
			c0.7-0.4,1.2-0.8,1.5-1.4c0.3-0.6,0.4-1.6,0.4-3c-0.8,0.8-1.6,1.3-2.4,1.7c-0.8,0.3-1.8,0.5-2.9,0.5c-2.4,0-4.3-0.8-6-2.5
			c-1.6-1.7-2.4-3.8-2.4-6.4c0-2.8,0.9-5,2.6-6.7c1.6-1.5,3.4-2.3,5.6-2.3c1,0,2,0.2,2.9,0.6c0.9,0.4,1.8,1,2.7,1.8V42.6z
			 M66.3,46.3c-1.4,0-2.5,0.5-3.4,1.4c-0.9,0.9-1.4,2.1-1.4,3.5c0,1.5,0.5,2.7,1.4,3.6c0.9,0.9,2.1,1.4,3.5,1.4
			c1.4,0,2.5-0.5,3.4-1.4c0.9-0.9,1.3-2.1,1.3-3.6c0-1.5-0.4-2.6-1.3-3.6C68.9,46.7,67.7,46.3,66.3,46.3z"/>
		<path id="XMLID_6_" class="st1" d="M81.4,42.6h4.4v1.8c1-0.8,1.9-1.4,2.7-1.8c0.8-0.3,1.6-0.5,2.5-0.5c1.7,0,3.2,0.6,4.4,1.8
			c1,1,1.5,2.6,1.5,4.6v11.6h-4.4v-7.7c0-2.1-0.1-3.5-0.3-4.2c-0.2-0.7-0.5-1.2-1-1.6c-0.5-0.4-1-0.5-1.7-0.5
			c-0.9,0-1.7,0.3-2.3,0.9c-0.6,0.6-1.1,1.4-1.3,2.5c-0.1,0.5-0.2,1.7-0.2,3.6v7h-4.4V42.6z"/>
		<path id="XMLID_4_" class="st1" d="M43.7,73.6h4.4v8.4c0,1.6,0.1,2.8,0.3,3.4c0.2,0.6,0.6,1.1,1.1,1.5c0.5,0.4,1.1,0.5,1.8,0.5
			c0.7,0,1.4-0.2,1.9-0.5c0.5-0.3,0.9-0.9,1.1-1.5c0.2-0.5,0.3-1.6,0.3-3.2v-8.6h4.4v7.4c0,3.1-0.2,5.2-0.7,6.3
			c-0.6,1.4-1.5,2.4-2.6,3.2c-1.1,0.7-2.6,1.1-4.4,1.1c-1.9,0-3.5-0.4-4.7-1.3c-1.2-0.9-2-2.1-2.5-3.6c-0.3-1.1-0.5-3-0.5-5.8V73.6z
			"/>
		<path id="XMLID_1_" class="st1" d="M69.6,73.6v1.9c0.8-0.8,1.7-1.4,2.6-1.8c0.9-0.4,1.9-0.6,3-0.6c2.3,0,4.2,0.9,5.8,2.6
			c1.6,1.7,2.4,3.9,2.4,6.7c0,2.6-0.8,4.8-2.5,6.5c-1.7,1.8-3.6,2.6-5.9,2.6c-1,0-1.9-0.2-2.8-0.5c-0.9-0.4-1.7-0.9-2.6-1.8v8.3
			h-4.4V73.6H69.6z M74.2,77.2c-1.4,0-2.5,0.5-3.4,1.4c-0.9,0.9-1.4,2.2-1.4,3.7c0,1.6,0.5,2.8,1.4,3.8c0.9,1,2.1,1.4,3.4,1.4
			c1.3,0,2.5-0.5,3.4-1.5c0.9-1,1.4-2.2,1.4-3.7c0-1.5-0.5-2.7-1.4-3.7C76.7,77.7,75.6,77.2,74.2,77.2z"/>
	</g>
	<circle id="XMLID_153_" class="st2" cx="64.5" cy="64.3" r="60"/>
</g>
</svg>
