<?xml version="1.0" encoding="UTF-8" standalone="no"?>
<!-- Created with Inkscape (http://www.inkscape.org/) -->

<svg
   xmlns:dc="http://purl.org/dc/elements/1.1/"
   xmlns:cc="http://creativecommons.org/ns#"
   xmlns:rdf="http://www.w3.org/1999/02/22-rdf-syntax-ns#"
   xmlns:svg="http://www.w3.org/2000/svg"
   xmlns="http://www.w3.org/2000/svg"
   xmlns:sodipodi="http://sodipodi.sourceforge.net/DTD/sodipodi-0.dtd"
   xmlns:inkscape="http://www.inkscape.org/namespaces/inkscape"
   width="64px"
   height="64px"
   id="svg3020"
   version="1.1"
   inkscape:version="0.48.5 r10040"
   sodipodi:docname="addons.svg">
  <defs
     id="defs3022" />
  <sodipodi:namedview
     id="base"
     pagecolor="#ffffff"
     bordercolor="#666666"
     borderopacity="1.0"
     inkscape:pageopacity="0.0"
     inkscape:pageshadow="2"
     inkscape:zoom="2.75"
     inkscape:cx="32"
     inkscape:cy="-16.274223"
     inkscape:current-layer="layer1"
     showgrid="true"
     inkscape:document-units="px"
     inkscape:grid-bbox="true"
     inkscape:window-width="1536"
     inkscape:window-height="801"
     inkscape:window-x="-8"
     inkscape:window-y="-8"
     inkscape:window-maximized="1" />
  <metadata
     id="metadata3025">
    <rdf:RDF>
      <cc:Work
         rdf:about="">
        <dc:format>image/svg+xml</dc:format>
        <dc:type
           rdf:resource="http://purl.org/dc/dcmitype/StillImage" />
        <dc:title></dc:title>
      </cc:Work>
    </rdf:RDF>
  </metadata>
  <g
     id="layer1"
     inkscape:label="Layer 1"
     inkscape:groupmode="layer">
    <g
       id="XMLID_13285_"
       transform="matrix(0.74911105,0,0,0.74880571,-148.66593,-215.31649)">
      <path
         id="XMLID_14_"
         class="st0"
         d="m 272.2,361.6 h 5.7 l 11.4,29.6 h -5.9 l -2.3,-6.1 H 269 l -2.4,6.1 h -5.9 l 11.5,-29.6 z m 2.9,7.8 -4,10.2 h 7.9 l -3.9,-10.2 z"
         inkscape:connector-curvature="0"
         style="fill:#090405" />
      <path
         id="XMLID_11_"
         class="st0"
         d="m 311.3,360.8 h 5.5 v 30.4 h -5.5 v -2.3 c -1.1,1 -2.2,1.8 -3.2,2.2 -1.1,0.4 -2.3,0.7 -3.5,0.7 -2.8,0 -5.3,-1.1 -7.3,-3.3 -2.1,-2.2 -3.1,-4.9 -3.1,-8.2 0,-3.4 1,-6.2 3,-8.3 2,-2.2 4.4,-3.2 7.3,-3.2 1.3,0 2.5,0.2 3.7,0.7 1.2,0.5 2.2,1.2 3.2,2.2 v -10.9 z m -5.8,13 c -1.7,0 -3.1,0.6 -4.2,1.8 -1.1,1.2 -1.7,2.7 -1.7,4.6 0,1.9 0.6,3.5 1.7,4.7 1.1,1.2 2.6,1.8 4.2,1.8 1.7,0 3.2,-0.6 4.3,-1.8 1.1,-1.2 1.7,-2.8 1.7,-4.7 0,-1.9 -0.6,-3.5 -1.7,-4.6 -1.1,-1.2 -2.5,-1.8 -4.3,-1.8 z"
         inkscape:connector-curvature="0"
         style="fill:#090405" />
      <path
         id="XMLID_8_"
         class="st0"
         d="m 340.6,360.8 h 5.5 v 30.4 h -5.5 v -2.3 c -1.1,1 -2.2,1.8 -3.2,2.2 -1.1,0.4 -2.3,0.7 -3.5,0.7 -2.8,0 -5.3,-1.1 -7.3,-3.3 -2.1,-2.2 -3.1,-4.9 -3.1,-8.2 0,-3.4 1,-6.2 3,-8.3 2,-2.2 4.4,-3.2 7.3,-3.2 1.3,0 2.5,0.2 3.7,0.7 1.2,0.5 2.2,1.2 3.2,2.2 v -10.9 z m -5.8,13 c -1.7,0 -3.1,0.6 -4.2,1.8 -1.1,1.2 -1.7,2.7 -1.7,4.6 0,1.9 0.6,3.5 1.7,4.7 1.1,1.2 2.6,1.8 4.2,1.8 1.7,0 3.2,-0.6 4.3,-1.8 1.1,-1.2 1.7,-2.8 1.7,-4.7 0,-1.9 -0.6,-3.5 -1.7,-4.6 -1.1,-1.2 -2.5,-1.8 -4.3,-1.8 z"
         inkscape:connector-curvature="0"
         style="fill:#090405" />
      <path
         id="XMLID_5_"
         class="st0"
         d="m 280.7,407.5 c 2.1,0 4,0.5 5.8,1.6 1.8,1 3.2,2.4 4.3,4.2 1,1.8 1.5,3.7 1.5,5.7 0,2.1 -0.5,4 -1.5,5.8 -1,1.8 -2.4,3.2 -4.2,4.2 -1.8,1 -3.7,1.5 -5.9,1.5 -3.1,0 -5.8,-1.1 -8,-3.4 -2.2,-2.2 -3.3,-5 -3.3,-8.1 0,-3.4 1.3,-6.3 3.8,-8.6 2.1,-1.9 4.6,-2.9 7.5,-2.9 z m 0.1,5.2 c -1.7,0 -3.1,0.6 -4.3,1.8 -1.1,1.2 -1.7,2.7 -1.7,4.6 0,1.9 0.6,3.5 1.7,4.6 1.1,1.2 2.5,1.8 4.3,1.8 1.7,0 3.2,-0.6 4.3,-1.8 1.1,-1.2 1.7,-2.7 1.7,-4.6 0,-1.9 -0.6,-3.4 -1.7,-4.6 -1.1,-1.3 -2.6,-1.8 -4.3,-1.8 z"
         inkscape:connector-curvature="0"
         style="fill:#090405" />
      <path
         id="XMLID_3_"
         class="st0"
         d="m 298.9,408 h 5.5 v 2.2 c 1.2,-1.1 2.4,-1.8 3.4,-2.2 1,-0.4 2,-0.6 3.1,-0.6 2.2,0 4,0.8 5.5,2.3 1.3,1.3 1.9,3.2 1.9,5.7 V 430 h -5.4 v -9.6 c 0,-2.6 -0.1,-4.4 -0.4,-5.2 -0.2,-0.9 -0.6,-1.5 -1.2,-2 -0.6,-0.4 -1.3,-0.7 -2.2,-0.7 -1.1,0 -2.1,0.4 -2.9,1.1 -0.8,0.7 -1.4,1.8 -1.7,3.1 -0.2,0.7 -0.2,2.2 -0.2,4.4 v 8.8 h -5.5 V 408 z"
         inkscape:connector-curvature="0"
         style="fill:#090405" />
      <path
         id="XMLID_1_"
         class="st0"
         d="m 339.1,411.1 -3.4,3.4 c -1.4,-1.4 -2.6,-2.1 -3.8,-2.1 -0.6,0 -1.1,0.1 -1.5,0.4 -0.3,0.3 -0.5,0.6 -0.5,1 0,0.3 0.1,0.6 0.3,0.8 0.2,0.2 0.8,0.6 1.6,1 l 2,1 c 2.1,1 3.6,2.1 4.4,3.2 0.8,1.1 1.2,2.4 1.2,3.8 0,1.9 -0.7,3.6 -2.1,4.9 -1.4,1.3 -3.3,2 -5.8,2 -3.2,0 -5.7,-1.2 -7.7,-3.7 l 3.4,-3.7 c 0.6,0.8 1.4,1.4 2.3,1.8 0.9,0.5 1.6,0.7 2.3,0.7 0.7,0 1.3,-0.2 1.8,-0.5 0.4,-0.3 0.7,-0.8 0.7,-1.2 0,-0.8 -0.8,-1.7 -2.4,-2.5 l -1.9,-0.9 c -3.5,-1.8 -5.3,-4 -5.3,-6.7 0,-1.7 0.7,-3.2 2,-4.4 1.3,-1.2 3,-1.8 5.1,-1.8 1.4,0 2.8,0.3 4,0.9 1.4,0.5 2.4,1.4 3.3,2.6 z"
         inkscape:connector-curvature="0"
         style="fill:#090405" />
    </g>
    <circle
       id="XMLID_657_"
       class="st1"
       cx="306"
       cy="396.39999"
       r="75"
       sodipodi:cx="306"
       sodipodi:cy="396.39999"
       sodipodi:rx="75"
       sodipodi:ry="75"
       transform="matrix(0.99737732,0,0,1.0158835,-225.73612,-322.42587)"
       style="fill:none;stroke:#000000;stroke-width:3.57060003;stroke-miterlimit:10" />
    <path
       style="fill:#ffffff;fill-opacity:1;stroke-width:1000;stroke-miterlimit:4;stroke-dasharray:none"
       d="M 70.254545,157.49119 C 53.337102,155.28482 38.060417,147.70578 25.890909,135.48161 -3.5186185,105.93997 -4.60806,58.875598 23.394077,27.617284 38.757291,10.467589 62.170465,0.92509668 84.56388,2.6863487 c 19.11685,1.5035487 36.32199,9.6168663 49.40449,23.2973613 10.97543,11.477121 17.85069,25.100277 20.84744,41.308695 0.79374,4.293094 1.13135,17.410938 0.56211,21.840662 -1.82202,14.178493 -6.83904,26.857723 -14.95531,37.795703 -12.06512,16.25967 -29.29354,26.86085 -49.077155,30.19867 -4.764891,0.80391 -16.203342,1.00119 -21.09091,0.36375 z m 21.818182,-3.77223 c 23.292653,-4.16246 43.484063,-19.88795 53.541563,-41.69928 4.79768,-10.40458 6.88174,-19.994977 6.87476,-31.636366 -0.006,-9.853738 -1.20892,-16.984069 -4.32533,-25.636364 C 142.3786,38.685325 131.57709,25.322936 117.16364,16.397199 88.578604,-1.3044899 51.153858,3.4333131 27.685297,27.72475 19.273056,36.43195 13.967468,45.166445 10.141683,56.606488 4.9044796,72.267019 5.021277,89.262834 10.474035,104.96874 c 9.224112,26.56878 31.80654,45.28768 59.416874,49.25152 5.07604,0.72873 16.778655,0.46426 22.181818,-0.5013 z"
       id="path3049"
       inkscape:connector-curvature="0" />
    <path
       style="fill:#ffffff;fill-opacity:1;stroke-width:1000;stroke-miterlimit:4;stroke-dasharray:none"
       d="m 47.65744,75.583335 c 0.373648,-0.960012 2.279681,-5.877294 4.235628,-10.927294 l 3.556268,-9.181818 1.909155,0 c 1.186282,0 1.979165,0.172107 2.094059,0.454545 0.311258,0.765152 6.444757,16.669611 7.369231,19.108771 l 0.868164,2.290588 -2.043281,-0.10877 -2.043281,-0.10877 -0.744922,-2.090909 -0.744923,-2.09091 -4.768083,0 -4.768084,0 -0.744923,2.09091 -0.744922,2.090909 -2.054723,0.109111 -2.054722,0.109112 0.679359,-1.745475 z m 12.758549,-6.927294 c -0.05384,-0.720701 -2.762355,-7.181818 -3.010632,-7.181818 -0.212274,0 -3.141296,6.848404 -3.149384,7.363636 -7.85e-4,0.05 1.389482,0.09091 3.089482,0.09091 1.7,0 3.08174,-0.122727 3.070534,-0.272727 l 0,0 z"
       id="path3051"
       inkscape:connector-curvature="0" />
    <path
       style="fill:#ffffff;fill-opacity:1;stroke-width:1000;stroke-miterlimit:4;stroke-dasharray:none"
       d="m 77.990927,77.666609 c -3.822499,-0.908188 -6.118607,-4.461744 -5.858403,-9.066719 0.119257,-2.110548 0.332056,-2.816407 1.237444,-4.104617 0.601381,-0.855661 1.610196,-1.904002 2.241811,-2.329647 2.243285,-1.51175 5.759177,-1.413504 7.834469,0.218921 0.507655,0.399322 1.019927,0.72604 1.138381,0.72604 0.118454,0 0.215371,-1.8 0.215371,-4 l 0,-4 1.818182,0 1.818182,0 0,11.090909 0,11.090909 -1.818182,0 c -1.575758,0 -1.818182,-0.09697 -1.818182,-0.727273 0,-0.900349 -0.182101,-0.905723 -1.398411,-0.04127 -0.835606,0.593882 -3.524507,1.55947 -4.056134,1.456563 -0.1,-0.01936 -0.709538,-0.160575 -1.354528,-0.313818 z M 83.405073,72.9806 c 1.863622,-2.085754 1.803847,-5.583822 -0.126225,-7.386778 -0.902309,-0.842884 -1.426995,-1.02869 -2.904847,-1.02869 -2.20368,0 -2.923382,0.358901 -3.905137,1.947412 -1.468281,2.375731 -0.650381,6.183744 1.572367,7.320684 1.751593,0.895943 4.140836,0.516153 5.363842,-0.852628 z"
       id="path3053"
       inkscape:connector-curvature="0" />
    <path
       style="fill:#ffffff;fill-opacity:1;stroke-width:1000;stroke-miterlimit:4;stroke-dasharray:none"
       d="M 99.75174,77.58534 C 97.611597,77.108862 94.84175,74.379312 94.239671,72.153464 92.25719,64.824361 98.880609,58.606724 104.90782,62.138902 l 1.71036,1.002342 0,-4.015329 0,-4.015328 1.81818,0 1.81819,0 0,11.090909 0,11.090909 -1.81819,0 c -1.57575,0 -1.81818,-0.09697 -1.81818,-0.727273 0,-0.920551 -0.0554,-0.914521 -1.67096,0.181818 -0.73679,0.5 -1.63067,0.909091 -1.98641,0.909091 -0.35573,0 -0.86471,0.06393 -1.13107,0.142061 -0.26636,0.07813 -1.20146,-0.01761 -2.078,-0.212762 z m 4.25694,-3.597826 c 1.66246,-0.579535 2.6095,-2.345257 2.6095,-4.865303 0,-1.885591 -0.1179,-2.20225 -1.23636,-3.320715 -1.07789,-1.077892 -1.4705,-1.236364 -3.06301,-1.236364 -1.42419,0 -2.0678,0.202919 -2.921182,0.920991 -1.36512,1.148673 -2.007423,3.009722 -1.689072,4.894026 0.544976,3.225683 3.137214,4.709963 6.300124,3.607365 l 0,0 z"
       id="path3055"
       inkscape:connector-curvature="0" />
    <path
       style="fill:#ffffff;fill-opacity:1;stroke-width:1000;stroke-miterlimit:4;stroke-dasharray:none"
       d="m 59.18672,106.48322 c -1.290007,-0.32857 -3.408767,-1.96007 -4.305798,-3.31557 -1.160328,-1.75338 -1.425838,-2.65918 -1.409197,-4.807569 0.03766,-4.862225 4.424626,-8.837247 9.052948,-8.202864 8.265218,1.132874 10.276162,11.987973 2.9016,15.662863 -1.799167,0.89657 -4.285608,1.16083 -6.239553,0.66314 z m 5.351205,-4.01 c 1.740614,-1.57523 2.199439,-4.235257 1.122131,-6.505514 -1.439557,-3.033641 -6.334173,-3.070847 -8.00447,-0.06084 -0.673278,1.213297 -0.604466,4.173768 0.125745,5.409918 0.887858,1.50302 2.498622,2.22231 4.446638,1.98565 0.885383,-0.10756 1.924863,-0.48071 2.309956,-0.82921 l 0,0 z"
       id="path3057"
       inkscape:connector-curvature="0" />
    <path
       style="fill:#ffffff;fill-opacity:1;stroke-width:1000;stroke-miterlimit:4;stroke-dasharray:none"
       d="m 75.345455,98.383314 0,-8 2,0 c 1.757575,0 2,0.08815 2,0.727273 0,0.915523 0.146632,0.909483 1.458006,-0.06006 1.542932,-1.140739 4.538846,-1.301654 6.090772,-0.327145 2.382136,1.495827 2.630162,2.380535 2.63168,9.387206 l 0.0014,6.27272 -1.785546,0 -1.785546,0 -0.123545,-5.5813 c -0.131805,-5.954446 -0.29443,-6.519668 -2.070071,-7.194765 -1.316397,-0.500494 -3.051279,0.214411 -3.875828,1.597139 -0.579736,0.972189 -0.727959,2.055745 -0.845235,6.178926 l -0.142216,5 -1.776916,0 -1.776915,0 0,-7.999996 z"
       id="path3059"
       inkscape:connector-curvature="0" />
    <path
       style="fill:#ffffff;fill-opacity:1;stroke-width:1000;stroke-miterlimit:4;stroke-dasharray:none"
       d="m 96.554432,106.16095 c -0.635063,-0.31319 -1.443588,-0.8887 -1.796724,-1.27891 -0.618725,-0.68369 -0.601903,-0.74964 0.46279,-1.81433 l 1.104854,-1.10485 1.237324,0.75432 c 2.157463,1.31528 4.594344,0.77105 4.262534,-0.95194 -0.0692,-0.35916 -1.02359,-1.17054 -2.120942,-1.803062 -4.292419,-2.474202 -5.58473,-4.4088 -4.56899,-6.839809 1.367697,-3.273359 5.889182,-4.030879 8.841462,-1.48128 l 1.00508,0.867986 -1.03975,1.089419 -1.03976,1.089417 -1.14206,-0.696393 c -1.37025,-0.835535 -2.527709,-0.893916 -3.138225,-0.15829 -0.704905,0.84936 -0.21786,1.484277 2.076775,2.707305 2.77024,1.476521 3.98404,2.633187 4.41994,4.211877 0.61061,2.21144 -0.39761,4.36161 -2.57255,5.48631 -1.3047,0.67469 -4.551436,0.63255 -5.991758,-0.0778 l 0,0 z"
       id="path3061"
       inkscape:connector-curvature="0" />
  </g>
</svg>
