<svg id="Layer_1" data-name="Layer 1" xmlns="http://www.w3.org/2000/svg" viewBox="0 0 166.68 99.4"><defs><style>.cls-1{fill:#fffabc;}.cls-2{fill:#603913;}</style></defs><title>birth</title><g id="_Group_" data-name="&lt;Group&gt;"><g id="_Group_2" data-name="&lt;Group&gt;"><path id="_Path_" data-name="&lt;Path&gt;" class="cls-1" d="M527.82,4613q-0.89,0-1.82,0c-4.37-.21-7.44-1.45-9.11-3.67a6.29,6.29,0,0,1-1.17-5,1.87,1.87,0,0,1,3.65.83,2.62,2.62,0,0,0,.55,2c0.68,0.87,2.32,1.94,6.27,2.13,7.47,0.37,11.44-1.81,12.41-2.83-1.52-1.23-7.4-3.28-13.21.33a1.87,1.87,0,1,1-2-3.18,16.59,16.59,0,0,1,14.46-1.68c1.14,0.41,3.86,1.58,4.51,3.51a3.3,3.3,0,0,1-.67,3.12C539.94,4610.85,535,4613,527.82,4613Z" transform="translate(-421.67 -4599.6)"/><path id="_Path_2" data-name="&lt;Path&gt;" class="cls-1" d="M526.34,4618.58a20.25,20.25,0,0,1-12.47-3.9,16.9,16.9,0,0,1-5.11-6.07,1.87,1.87,0,0,1,3.42-1.5c0.19,0.43,4.7,10,19.13,7.23,14-2.69,14.28-8,14.28-8a1.87,1.87,0,0,1,3.73-.23c0.05,0.87,0,8.59-17.3,11.92A30,30,0,0,1,526.34,4618.58Z" transform="translate(-421.67 -4599.6)"/><path id="_Path_3" data-name="&lt;Path&gt;" class="cls-1" d="M529.33,4623.12c-17.14,0-26-9-26.44-9.38a1.87,1.87,0,0,1,2.68-2.61h0a27,27,0,0,0,7.31,4.76,40.62,40.62,0,0,0,21.59,3.2c11.61-1.25,16.35-4,16.88-6a2.09,2.09,0,0,0-1-2,1.87,1.87,0,0,1,2.19-3,5.65,5.65,0,0,1,2.47,6c-0.83,3.11-5,7.17-20.09,8.79A51.92,51.92,0,0,1,529.33,4623.12Z" transform="translate(-421.67 -4599.6)"/><path id="_Path_4" data-name="&lt;Path&gt;" class="cls-1" d="M528.27,4629.53c-26.46,0-32.33-12-32.58-12.57a1.87,1.87,0,0,1,3.39-1.58c0.11,0.21,6.47,12.3,36,10.16,18.32-1.33,21.95-8,23.89-11.6,0.29-.54.57-1.05,0.87-1.5a1.87,1.87,0,0,1,3.11,2.07c-0.2.3-.43,0.72-0.69,1.21-2.13,3.92-6.55,12.07-26.91,13.54C532.83,4629.45,530.48,4629.53,528.27,4629.53Z" transform="translate(-421.67 -4599.6)"/><path id="_Path_5" data-name="&lt;Path&gt;" class="cls-1" d="M524.88,4634.4c-3.44,0-7.16-.11-11.19-0.36-12.73-.77-20.63-3.45-23.49-8a6.34,6.34,0,0,1-.78-5.61,1.87,1.87,0,0,1,3.48,1.36,2.81,2.81,0,0,0,.54,2.36c1.28,1.9,5.65,5.23,20.47,6.12,34.23,2.06,44.38-4.73,54.09-13.84a1.87,1.87,0,0,1,2.56,2.73C563.25,4626.05,554.35,4634.4,524.88,4634.4Z" transform="translate(-421.67 -4599.6)"/><path id="_Path_6" data-name="&lt;Path&gt;" class="cls-1" d="M521.23,4640.54a123,123,0,0,1-17.68-1.32c-10.42-1.51-16.66-4.46-18.56-8.74a6.89,6.89,0,0,1,.45-6.41,1.87,1.87,0,0,1,3.12,2.07,3.16,3.16,0,0,0-.12,2.88c0.78,1.69,3.86,4.79,15.65,6.5,15.78,2.3,45.48,3.41,67.09-15a1.87,1.87,0,1,1,2.42,2.85C560.37,4634.67,542.17,4640.54,521.23,4640.54Z" transform="translate(-421.67 -4599.6)"/><path id="_Path_7" data-name="&lt;Path&gt;" class="cls-1" d="M534.05,4696.57a119.59,119.59,0,0,1-18-1.45c-18.19-2.8-30.05-9.77-35.27-20.73-3.55-7.45-3.9-16.83-1-27.12a62.28,62.28,0,0,1,5.45-13.34,1.87,1.87,0,0,1,3.23,1.89c-0.12.21-12,20.88-4.29,37,4.66,9.76,15.58,16,32.46,18.62,30,4.61,46.53-2.83,55.15-9.88,9-7.37,12.54-16.81,12.82-22.64,0.52-10.89-2.69-19.36-11.43-30.22a1.87,1.87,0,0,1,2.91-2.35c9.26,11.5,12.82,21,12.26,32.74-0.33,6.92-4.23,17.22-14.19,25.36C562.7,4693.75,547.83,4696.57,534.05,4696.57Z" transform="translate(-421.67 -4599.6)"/><ellipse id="_Path_8" data-name="&lt;Path&gt;" class="cls-1" cx="109.07" cy="61.04" rx="4.26" ry="5.82"/><ellipse id="_Path_9" data-name="&lt;Path&gt;" class="cls-1" cx="138.16" cy="57.1" rx="3.8" ry="5.19"/><g id="_Group_3" data-name="&lt;Group&gt;"><path id="_Path_10" data-name="&lt;Path&gt;" class="cls-1" d="M547.17,4679.27a16.33,16.33,0,0,1-8.81-2.74,1.25,1.25,0,1,1,1.46-2,13.87,13.87,0,0,0,8,2.25c4.59-.26,6.14-4.89,6.16-4.93a1.25,1.25,0,1,1,2.37.77c-0.08.26-2.12,6.29-8.39,6.65Z" transform="translate(-421.67 -4599.6)"/></g><g id="_Group_4" data-name="&lt;Group&gt;"><path id="_Path_11" data-name="&lt;Path&gt;" class="cls-1" d="M537.81,4678.63a1.25,1.25,0,0,1-1.09-1.84l2.37-4.38a1.25,1.25,0,0,1,2.19,1.19l-2.37,4.38A1.25,1.25,0,0,1,537.81,4678.63Z" transform="translate(-421.67 -4599.6)"/></g></g><g id="_Group_5" data-name="&lt;Group&gt;"><ellipse id="_Path_12" data-name="&lt;Path&gt;" class="cls-1" cx="45.33" cy="84.73" rx="45.33" ry="14.67"/><ellipse id="_Path_13" data-name="&lt;Path&gt;" class="cls-1" cx="45.33" cy="50.73" rx="39.15" ry="12.67"/><rect id="_Rectangle_" data-name="&lt;Rectangle&gt;" class="cls-1" x="6" y="50.73" width="78.67" height="32"/><rect id="_Rectangle_2" data-name="&lt;Rectangle&gt;" class="cls-1" x="39.17" y="19.06" width="8.5" height="24"/><circle id="_Path_14" data-name="&lt;Path&gt;" class="cls-1" cx="43.42" cy="10.06" r="4.75"/><path id="_Path_15" data-name="&lt;Path&gt;" class="cls-1" d="M469.08,4612s2.38-2.6-.62-7.13-0.62-5.3-.62-5.3-7.94,3.44-7.5,10.61Z" transform="translate(-421.67 -4599.6)"/><path id="_Path_16" data-name="&lt;Path&gt;" class="cls-2" d="M429.33,4656v26.33s9,9.33,38.33,9.33S505,4681.33,505,4681.33v-28s0.67,9-6,10.67-8.67-4-13-4-8,8.33-9.33,10.33-5.33,7.33-12.67,2.33-8.67-13.33-15-13.67-8.33,7.67-11.33,7.67S431,4662.33,429.33,4656Z" transform="translate(-421.67 -4599.6)"/></g></g></svg>