<?xml version="1.0" encoding="utf-8"?>
<!-- Generator: Adobe Illustrator 19.2.1, SVG Export Plug-In . SVG Version: 6.00 Build 0)  -->
<svg version="1.1" id="Layer_1" xmlns="http://www.w3.org/2000/svg" xmlns:xlink="http://www.w3.org/1999/xlink" x="0px" y="0px"
	 viewBox="0 0 321 137" style="enable-background:new 0 0 321 137;" xml:space="preserve">
<style type="text/css">
	.st0{fill:#FFFABC;}
	.st1{fill:none;stroke:#603913;stroke-miterlimit:10;}
	.st2{font-family:'CenturyGothic';}
	.st3{font-size:22px;}
</style>
<title>cash-back</title>
<path id="_Path_" class="st0" d="M162.5,14.8c-0.6,0-1.2,0-1.8,0c-4.4-0.2-7.4-1.5-9.1-3.7c-1.1-1.4-1.5-3.2-1.2-5
	c0.2-1,1.2-1.6,2.2-1.4s1.6,1.2,1.4,2.2c-0.1,0.7,0.1,1.4,0.6,2c0.7,0.8,2.4,1.8,6.3,2.1c7.5,0.4,11.4-1.8,12.4-2.8
	c-1.5-1.2-7.4-3.3-13.2,0.3c-0.9,0.6-2,0.3-2.6-0.6c-0.6-0.9-0.3-2,0.6-2.6l0,0c4.3-2.8,9.6-3.4,14.5-1.7c1.1,0.4,3.9,1.6,4.5,3.5
	c0.3,1.1,0.1,2.3-0.7,3.1C174.7,12.6,169.8,14.8,162.5,14.8z"/>
<path id="_Path_2" class="st0" d="M161.1,20.4c-4.5,0.1-8.9-1.3-12.5-3.9c-2.2-1.6-3.9-3.7-5.1-6.1c-0.4-1,0.1-2,1.1-2.4
	c0.9-0.3,1.9,0.1,2.3,0.9c0.2,0.4,4.7,10,19.1,7.2c14-2.7,14.3-8,14.3-8c0-1,0.8-1.9,1.8-1.9c1,0,1.8,0.7,1.9,1.7
	c0.1,0.9,0,8.6-17.3,11.9C164.9,20.2,163,20.4,161.1,20.4z"/>
<path id="_Path_3" class="st0" d="M164.1,24.9c-17.1,0-26-9-26.4-9.4c-0.7-0.7-0.7-1.9,0-2.6s1.9-0.7,2.6,0l0,0
	c2.2,2,4.6,3.6,7.3,4.8c6.8,3,14.2,4.1,21.6,3.2c11.6-1.3,16.4-4,16.9-6c0.1-0.8-0.3-1.6-1-2c-0.8-0.7-0.8-1.9-0.1-2.6
	c0.6-0.6,1.5-0.8,2.3-0.4c2,1.3,3,3.7,2.5,6c-0.8,3.1-5,7.2-20.1,8.8C167.8,24.9,166,24.9,164.1,24.9z"/>
<path id="_Path_4" class="st0" d="M163,31.3c-26.5,0-32.3-12-32.6-12.6c-0.4-0.9,0-2,0.9-2.5c0.9-0.4,2,0,2.5,0.9l0,0
	c0.1,0.2,6.5,12.3,36,10.2c18.3-1.3,21.9-8,23.9-11.6c0.3-0.5,0.6-1,0.9-1.5c0.5-0.9,1.7-1.2,2.6-0.6c0.9,0.5,1.2,1.7,0.6,2.6
	c0,0.1-0.1,0.1-0.1,0.1c-0.2,0.3-0.4,0.7-0.7,1.2c-2.1,3.9-6.6,12.1-26.9,13.5C167.6,31.2,165.2,31.3,163,31.3z"/>
<path id="_Path_5" class="st0" d="M159.6,36.2c-3.4,0-7.2-0.1-11.2-0.4c-12.7-0.8-20.6-3.5-23.5-8c-1.1-1.6-1.4-3.7-0.8-5.6
	c0.4-0.9,1.5-1.4,2.5-1c0.9,0.4,1.3,1.4,1,2.3c-0.2,0.8,0,1.7,0.5,2.4c1.3,1.9,5.7,5.2,20.5,6.1c34.2,2.1,44.4-4.7,54.1-13.8
	c0.8-0.7,1.9-0.7,2.6,0.1s0.7,1.9-0.1,2.6C198,27.8,189.1,36.2,159.6,36.2z"/>
<path id="_Path_6" class="st0" d="M156,42.3c-5.9,0-11.8-0.5-17.7-1.3c-10.4-1.5-16.7-4.5-18.6-8.7c-0.9-2.1-0.8-4.5,0.4-6.5
	c0.6-0.9,1.7-1.1,2.6-0.5s1.1,1.7,0.5,2.6c-0.5,0.9-0.6,2-0.1,2.9c0.8,1.7,3.9,4.8,15.6,6.5c15.8,2.3,45.5,3.4,67.1-15
	c0.8-0.7,2-0.6,2.6,0.1s0.6,2-0.1,2.6c0,0,0,0-0.1,0.1C195.1,36.5,176.9,42.3,156,42.3z"/>
<path id="_Path_7" class="st0" d="M223.1,60.9c-0.3,6.9-4.2,17.2-14.2,25.4c-11.4,9.3-26.3,12.1-40,12.1c-6,0-12-0.5-18-1.4
	c-18.3-2.8-30.1-9.8-35.3-20.7c-3.6-7.4-3.9-16.8-1-27.1c1.3-4.6,3.1-9.1,5.4-13.3c0.5-0.9,1.7-1.2,2.6-0.7c0.9,0.5,1.2,1.7,0.7,2.6
	l0,0c-0.1,0.2-12,20.9-4.3,37c4.7,9.7,15.6,16,32.5,18.6c30,4.6,46.5-2.8,55.2-9.9c9-7.4,12.5-16.8,12.8-22.6"/>
<path id="_Path_8" class="st0" d="M219.3,60.7c0.5-10.9-2.7-19.4-11.4-30.2c-0.6-0.8-0.5-2,0.3-2.6s2-0.5,2.6,0.3
	c9.3,11.5,12.8,21,12.3,32.7"/>
<ellipse id="_Path_9" class="st0" cx="165.5" cy="62.4" rx="4.3" ry="5.8"/>
<ellipse id="_Path_10" class="st0" cx="194.6" cy="58.5" rx="3.8" ry="5.2"/>
<g id="_Group_">
	<path id="_Path_11" class="st0" d="M181.9,81.1c-3.1,0-6.2-1-8.8-2.7c-0.6-0.3-0.8-1.1-0.5-1.7c0.3-0.6,1.1-0.8,1.7-0.5
		c0.1,0.1,0.2,0.1,0.3,0.2c2.4,1.6,5.2,2.3,8,2.3c4.6-0.3,6.1-4.9,6.2-4.9c0.2-0.7,0.8-1.1,1.5-0.9c0.7,0.2,1.1,0.8,0.9,1.5
		c0,0.1,0,0.1-0.1,0.2c-0.1,0.3-2.1,6.3-8.4,6.7H181.9z"/>
</g>
<g id="_Group_2">
	<path id="_Path_12" class="st0" d="M172.5,80.4c-0.7,0-1.2-0.6-1.2-1.3c0-0.2,0.1-0.4,0.1-0.6l2.4-4.4c0.4-0.6,1.1-0.7,1.7-0.4
		c0.5,0.3,0.7,1,0.5,1.6l-2.3,4.4C173.4,80.2,173,80.4,172.5,80.4z"/>
</g>
<rect id="_Rectangle_" x="71.6" y="47.5" class="st0" width="68.8" height="40"/>
<circle id="_Path_13" class="st1" cx="106" cy="68" r="17"/>
<text transform="matrix(1 0 0 1 5 126)" class="st0 st2 st3">CASH BACK WITH PURCHASES</text>
</svg>
