<svg id="Layer_1" data-name="Layer 1" xmlns="http://www.w3.org/2000/svg" viewBox="0 0 179.52 100.39"><defs><style>.cls-1{fill:#fffabc;}.cls-2{fill:#603913;}.cls-3{fill:#43221c;}</style></defs><title>events</title><g id="_Group_" data-name="&lt;Group&gt;"><g id="_Group_2" data-name="&lt;Group&gt;"><path id="_Path_" data-name="&lt;Path&gt;" class="cls-1" d="M124.23,15.89q-0.89,0-1.82,0c-4.37-.21-7.44-1.45-9.11-3.67a6.29,6.29,0,0,1-1.17-5,1.87,1.87,0,0,1,3.65.83,2.62,2.62,0,0,0,.55,2c0.68,0.87,2.32,1.94,6.27,2.13C130.07,12.47,134,10.29,135,9.28c-1.52-1.23-7.4-3.28-13.21.33a1.87,1.87,0,0,1-2-3.18,16.59,16.59,0,0,1,14.46-1.68c1.14,0.41,3.86,1.58,4.51,3.51a3.3,3.3,0,0,1-.67,3.12C136.36,13.7,131.44,15.89,124.23,15.89Z" transform="translate(-5.24 -3.81)"/><path id="_Path_2" data-name="&lt;Path&gt;" class="cls-1" d="M122.76,21.44a20.25,20.25,0,0,1-12.47-3.9,16.9,16.9,0,0,1-5.11-6.07A1.87,1.87,0,0,1,108.6,10c0.19,0.43,4.7,10,19.13,7.23,14-2.69,14.28-8,14.28-8a1.87,1.87,0,0,1,3.73-.23c0.05,0.87,0,8.59-17.3,11.92A30,30,0,0,1,122.76,21.44Z" transform="translate(-5.24 -3.81)"/><path id="_Path_3" data-name="&lt;Path&gt;" class="cls-1" d="M125.75,26c-17.14,0-26-9-26.44-9.38A1.87,1.87,0,0,1,102,14h0a27,27,0,0,0,7.31,4.76A40.62,40.62,0,0,0,130.89,22c11.61-1.25,16.35-4,16.88-6a2.09,2.09,0,0,0-1-2,1.87,1.87,0,0,1,2.19-3,5.65,5.65,0,0,1,2.47,6c-0.83,3.11-5,7.17-20.09,8.79A51.92,51.92,0,0,1,125.75,26Z" transform="translate(-5.24 -3.81)"/><path id="_Path_4" data-name="&lt;Path&gt;" class="cls-1" d="M124.68,32.38c-26.46,0-32.33-12-32.58-12.57a1.87,1.87,0,0,1,3.39-1.58c0.11,0.21,6.47,12.3,36,10.16,18.32-1.33,21.95-8,23.89-11.6,0.29-.54.57-1.05,0.87-1.5a1.87,1.87,0,1,1,3.11,2.07c-0.2.3-.43,0.72-0.69,1.21-2.13,3.92-6.55,12.07-26.91,13.54C129.25,32.3,126.89,32.38,124.68,32.38Z" transform="translate(-5.24 -3.81)"/><path id="_Path_5" data-name="&lt;Path&gt;" class="cls-1" d="M121.29,37.25c-3.44,0-7.16-.11-11.19-0.36-12.73-.77-20.63-3.45-23.49-8a6.34,6.34,0,0,1-.78-5.61,1.87,1.87,0,0,1,3.48,1.36A2.81,2.81,0,0,0,89.85,27c1.28,1.9,5.65,5.23,20.47,6.12,34.23,2.06,44.38-4.73,54.09-13.84A1.87,1.87,0,1,1,167,22.06C159.67,28.91,150.76,37.25,121.29,37.25Z" transform="translate(-5.24 -3.81)"/><path id="_Path_6" data-name="&lt;Path&gt;" class="cls-1" d="M117.64,43.39A123,123,0,0,1,100,42.08c-10.42-1.51-16.66-4.46-18.56-8.74a6.89,6.89,0,0,1,.45-6.41A1.87,1.87,0,0,1,85,29a3.16,3.16,0,0,0-.12,2.88c0.78,1.69,3.86,4.79,15.65,6.5,15.78,2.3,45.48,3.41,67.09-15A1.87,1.87,0,1,1,170,26.27C156.78,37.52,138.58,43.39,117.64,43.39Z" transform="translate(-5.24 -3.81)"/><path id="_Path_7" data-name="&lt;Path&gt;" class="cls-1" d="M130.47,99.42a119.59,119.59,0,0,1-18-1.45c-18.19-2.8-30.05-9.77-35.27-20.73-3.55-7.45-3.9-16.83-1-27.12A62.27,62.27,0,0,1,81.6,36.78a1.87,1.87,0,0,1,3.23,1.89c-0.12.21-12,20.88-4.29,37,4.66,9.76,15.58,16,32.46,18.62,30,4.61,46.53-2.83,55.15-9.88,9-7.37,12.54-16.81,12.82-22.64,0.52-10.89-2.69-19.36-11.43-30.22a1.87,1.87,0,0,1,2.91-2.35c9.26,11.5,12.82,21,12.26,32.74-0.33,6.92-4.23,17.22-14.19,25.36C159.11,96.6,144.25,99.42,130.47,99.42Z" transform="translate(-5.24 -3.81)"/><ellipse id="_Path_8" data-name="&lt;Path&gt;" class="cls-1" cx="121.91" cy="59.69" rx="4.26" ry="5.82"/><ellipse id="_Path_9" data-name="&lt;Path&gt;" class="cls-1" cx="151" cy="55.74" rx="3.8" ry="5.19"/><g id="_Group_3" data-name="&lt;Group&gt;"><path id="_Path_10" data-name="&lt;Path&gt;" class="cls-1" d="M143.58,82.12a16.33,16.33,0,0,1-8.81-2.74,1.25,1.25,0,1,1,1.46-2,13.87,13.87,0,0,0,8,2.25c4.59-.26,6.14-4.89,6.16-4.93a1.25,1.25,0,0,1,2.37.77c-0.08.26-2.12,6.29-8.39,6.65Z" transform="translate(-5.24 -3.81)"/></g><g id="_Group_4" data-name="&lt;Group&gt;"><path id="_Path_11" data-name="&lt;Path&gt;" class="cls-1" d="M134.22,81.48a1.25,1.25,0,0,1-1.09-1.84l2.37-4.38a1.25,1.25,0,1,1,2.19,1.19l-2.37,4.38A1.25,1.25,0,0,1,134.22,81.48Z" transform="translate(-5.24 -3.81)"/></g></g><g id="_Group_5" data-name="&lt;Group&gt;"><rect id="_Rectangle_" data-name="&lt;Rectangle&gt;" class="cls-1" y="25.39" width="90" height="75" rx="10" ry="10"/><path id="_Path_12" data-name="&lt;Path&gt;" class="cls-2" d="M12.49,51.69v35a10,10,0,0,0,10,10H78a10,10,0,0,0,10-10v-35H12.49Z" transform="translate(-5.24 -3.81)"/><g id="_Group_6" data-name="&lt;Group&gt;"><rect id="_Rectangle_2" data-name="&lt;Rectangle&gt;" class="cls-1" x="20" y="54.72" width="12" height="12"/><rect id="_Rectangle_3" data-name="&lt;Rectangle&gt;" class="cls-1" x="39" y="54.72" width="12" height="12"/><rect id="_Rectangle_4" data-name="&lt;Rectangle&gt;" class="cls-1" x="58" y="54.72" width="12" height="12"/><rect id="_Rectangle_5" data-name="&lt;Rectangle&gt;" class="cls-1" x="20" y="71.22" width="12" height="12"/><rect id="_Rectangle_6" data-name="&lt;Rectangle&gt;" class="cls-1" x="39" y="71.22" width="12" height="12"/><rect id="_Rectangle_7" data-name="&lt;Rectangle&gt;" class="cls-1" x="58" y="71.22" width="12" height="12"/></g><rect id="_Rectangle_8" data-name="&lt;Rectangle&gt;" class="cls-3" x="19.62" y="12.14" width="13.15" height="26" rx="5.88" ry="5.88"/><rect id="_Rectangle_9" data-name="&lt;Rectangle&gt;" class="cls-1" x="22.19" y="15.21" width="8.02" height="19.85" rx="4.01" ry="4.01"/><rect id="_Rectangle_10" data-name="&lt;Rectangle&gt;" class="cls-3" x="56.87" y="12.14" width="13.15" height="26" rx="5.88" ry="5.88"/><rect id="_Rectangle_11" data-name="&lt;Rectangle&gt;" class="cls-1" x="59.44" y="15.21" width="8.02" height="19.85" rx="4.01" ry="4.01"/></g></g></svg>