<svg id="Layer_1" data-name="Layer 1" xmlns="http://www.w3.org/2000/svg" viewBox="0 0 469.97 124.84"><defs><style>.cls-1,.cls-4{fill:#fffabc;}.cls-2{fill:#603913;}.cls-3{fill:#43221c;}.cls-4{font-size:22px;font-family:Constantia;}.cls-5{letter-spacing:-1px;}</style></defs><title>events2</title><g id="_Group_" data-name=" Group "><g id="_Group_2" data-name=" Group 2"><path id="_Path_" data-name=" Path " class="cls-1" d="M267.89,15.76h-1.82c-4.37-.21-7.44-1.45-9.11-3.67a6.29,6.29,0,0,1-1.17-5,1.87,1.87,0,0,1,3.65.83,2.62,2.62,0,0,0,.55,2c0.68,0.87,2.32,1.94,6.27,2.13,7.47,0.29,11.4-1.89,12.4-2.9-1.52-1.23-7.4-3.28-13.21.33a1.88,1.88,0,0,1-2-3.18h0a16.59,16.59,0,0,1,14.46-1.68c1.14,0.41,3.86,1.58,4.51,3.51a3.3,3.3,0,0,1-.67,3.12C280,13.57,275.1,15.76,267.89,15.76Z" transform="translate(-2.92 -3.67)"/><path id="_Path_2" data-name=" Path 2" class="cls-1" d="M266.42,21.31A20.25,20.25,0,0,1,254,17.41a16.9,16.9,0,0,1-5.11-6.07,1.87,1.87,0,0,1,3.42-1.47c0.19,0.43,4.7,10,19.13,7.23,14-2.69,14.28-8,14.28-8a1.87,1.87,0,0,1,3.73-.23c0.05,0.87,0,8.59-17.3,11.92A30,30,0,0,1,266.42,21.31Z" transform="translate(-2.92 -3.67)"/><path id="_Path_3" data-name=" Path 3" class="cls-1" d="M269.41,25.87c-17.14,0-26-9-26.44-9.38a1.88,1.88,0,0,1,2.69-2.62h0A27,27,0,0,0,253,18.63a40.62,40.62,0,0,0,21.58,3.24c11.61-1.25,16.35-4,16.88-6a2.09,2.09,0,0,0-1-2,1.87,1.87,0,0,1,2.19-3,5.65,5.65,0,0,1,2.47,6c-0.83,3.11-5,7.17-20.09,8.79A51.92,51.92,0,0,1,269.41,25.87Z" transform="translate(-2.92 -3.67)"/><path id="_Path_4" data-name=" Path 4" class="cls-1" d="M268.34,32.25c-26.46,0-32.33-12-32.58-12.57a1.87,1.87,0,0,1,3.39-1.58h0c0.11,0.21,6.47,12.3,36,10.16,18.32-1.33,21.95-8,23.89-11.6,0.29-.54.57-1.05,0.87-1.5a1.87,1.87,0,1,1,3.21,1.92l-0.1.15c-0.2.3-.43,0.72-0.69,1.21-2.13,3.92-6.55,12.07-26.91,13.54C272.91,32.17,270.55,32.25,268.34,32.25Z" transform="translate(-2.92 -3.67)"/><path id="_Path_5" data-name=" Path 5" class="cls-1" d="M265,37.12c-3.44,0-7.16-.11-11.19-0.36-12.73-.77-20.63-3.45-23.49-8a6.34,6.34,0,0,1-.78-5.61A1.87,1.87,0,0,1,233,24.51a2.81,2.81,0,0,0,.54,2.36c1.28,1.9,5.65,5.23,20.47,6.12,34.23,2.06,44.38-4.73,54.09-13.84a1.9,1.9,0,0,1,2.59,2.78C303.33,28.78,294.42,37.12,265,37.12Z" transform="translate(-2.92 -3.67)"/><path id="_Path_6" data-name=" Path 6" class="cls-1" d="M261.3,43.26a123,123,0,0,1-17.64-1.31c-10.42-1.51-16.66-4.46-18.56-8.74a6.89,6.89,0,0,1,.45-6.41,1.87,1.87,0,0,1,3.11,2.07,3.16,3.16,0,0,0-.12,2.88c0.78,1.69,3.86,4.79,15.65,6.5,15.78,2.3,45.48,3.41,67.09-15a1.87,1.87,0,1,1,2.38,2.89C300.44,37.39,282.24,43.26,261.3,43.26Z" transform="translate(-2.92 -3.67)"/><path id="_Path_7" data-name=" Path 7" class="cls-1" d="M274.13,99.29a119.59,119.59,0,0,1-18-1.45c-18.19-2.8-30.05-9.77-35.27-20.73-3.55-7.45-3.9-16.83-1-27.12a62.27,62.27,0,0,1,5.4-13.34,1.87,1.87,0,0,1,3.23,1.89c-0.12.21-12,20.88-4.29,37,4.66,9.76,15.58,16,32.46,18.62,30,4.61,46.53-2.83,55.15-9.88,9-7.37,12.54-16.81,12.82-22.64,0.52-10.89-2.69-19.36-11.43-30.22a1.87,1.87,0,1,1,2.91-2.35c9.26,11.5,12.82,21,12.26,32.74C328,68.73,324.14,79,314.18,87.17,302.77,96.47,287.91,99.29,274.13,99.29Z" transform="translate(-2.92 -3.67)"/><ellipse id="_Path_8" data-name=" Path 8" class="cls-1" cx="267.9" cy="59.69" rx="4.26" ry="5.82"/><ellipse id="_Path_9" data-name=" Path 9" class="cls-1" cx="296.99" cy="55.74" rx="3.8" ry="5.19"/><g id="_Group_3" data-name=" Group 3"><path id="_Path_10" data-name=" Path 10" class="cls-1" d="M287.24,82a16.33,16.33,0,0,1-8.81-2.74,1.25,1.25,0,1,1,1.46-2,13.87,13.87,0,0,0,8,2.25c4.59-.26,6.14-4.89,6.16-4.93a1.25,1.25,0,0,1,2.37.77c-0.08.26-2.12,6.29-8.39,6.65h-0.79Z" transform="translate(-2.92 -3.67)"/></g><g id="_Group_4" data-name=" Group 4"><path id="_Path_11" data-name=" Path 11" class="cls-1" d="M277.88,81.35a1.25,1.25,0,0,1-1.09-1.84l2.37-4.38a1.25,1.25,0,1,1,2.19,1.19L279,80.7A1.25,1.25,0,0,1,277.88,81.35Z" transform="translate(-2.92 -3.67)"/></g></g><g id="_Group_5" data-name=" Group 5"><rect id="_Rectangle_" data-name=" Rectangle " class="cls-1" x="145.99" y="25.39" width="90" height="75" rx="10" ry="10"/><path id="_Path_12" data-name=" Path 12" class="cls-2" d="M156.15,51.56v35a10,10,0,0,0,10,10h55.51a10,10,0,0,0,10-10v-35H156.15Z" transform="translate(-2.92 -3.67)"/><g id="_Group_6" data-name=" Group 6"><rect id="_Rectangle_2" data-name=" Rectangle 2" class="cls-1" x="165.99" y="54.72" width="12" height="12"/><rect id="_Rectangle_3" data-name=" Rectangle 3" class="cls-1" x="184.99" y="54.72" width="12" height="12"/><rect id="_Rectangle_4" data-name=" Rectangle 4" class="cls-1" x="203.99" y="54.72" width="12" height="12"/><rect id="_Rectangle_5" data-name=" Rectangle 5" class="cls-1" x="165.99" y="71.22" width="12" height="12"/><rect id="_Rectangle_6" data-name=" Rectangle 6" class="cls-1" x="184.99" y="71.22" width="12" height="12"/><rect id="_Rectangle_7" data-name=" Rectangle 7" class="cls-1" x="203.99" y="71.22" width="12" height="12"/></g><rect id="_Rectangle_8" data-name=" Rectangle 8" class="cls-3" x="165.61" y="12.14" width="13.15" height="26" rx="5.88" ry="5.88"/><path id="_Rectangle_9" data-name=" Rectangle 9" class="cls-1" d="M175.1,18.89h0a4,4,0,0,1,4,4V34.73a4,4,0,0,1-4,4h0a4,4,0,0,1-4-4V22.9A4,4,0,0,1,175.1,18.89Z" transform="translate(-2.92 -3.67)"/><rect id="_Rectangle_10" data-name=" Rectangle 10" class="cls-3" x="202.86" y="12.14" width="13.15" height="26" rx="5.88" ry="5.88"/><path id="_Rectangle_11" data-name=" Rectangle 11" class="cls-1" d="M212.35,18.89h0a4,4,0,0,1,4,4V34.73a4,4,0,0,1-4,4h0a4,4,0,0,1-4-4V22.9A4,4,0,0,1,212.35,18.89Z" transform="translate(-2.92 -3.67)"/></g></g><text class="cls-4" transform="translate(0 119.33)">E<tspan x="12.77" y="0">X</tspan><tspan x="26.26" y="0">C</tspan><tspan x="40.59" y="0">L</tspan><tspan x="52.28" y="0">USIVE INVI</tspan><tspan class="cls-5" x="166.58" y="0">T</tspan><tspan class="cls-5" x="178.89" y="0">A</tspan><tspan x="192.65" y="0">TION</tspan><tspan x="247.79" y="0"> </tspan><tspan x="252.88" y="0">T</tspan><tspan x="266.05" y="0">O </tspan><tspan x="289.27" y="0">R</tspan><tspan x="302.51" y="0">O</tspan><tspan x="319.94" y="0">TIB</tspan><tspan x="354.04" y="0">O</tspan><tspan x="370.87" y="0">Y</tspan><tspan x="383.39" y="0"> </tspan><tspan x="388.91" y="0">E</tspan><tspan x="401.25" y="0">VENTS</tspan></text></svg>