<svg id="Layer_1" data-name="Layer 1" xmlns="http://www.w3.org/2000/svg" viewBox="0 0 167.79 107.27"><defs><style>.cls-1{fill:#fffabc;}.cls-2{font-size:11px;fill:#603913;font-family:Helvetica Bold;font-weight:700;}</style></defs><title>promo</title><g id="_Group_" data-name="&lt;Group&gt;"><g id="_Group_2" data-name="&lt;Group&gt;"><path id="_Path_" data-name="&lt;Path&gt;" class="cls-1" d="M528.93,4333.14q-0.89,0-1.82,0c-4.37-.21-7.44-1.45-9.11-3.67a6.29,6.29,0,0,1-1.17-5,1.87,1.87,0,0,1,3.65.83,2.62,2.62,0,0,0,.55,2c0.68,0.87,2.32,1.94,6.27,2.13,7.47,0.37,11.44-1.81,12.41-2.83-1.52-1.23-7.4-3.28-13.21.33a1.87,1.87,0,0,1-2-3.18A16.59,16.59,0,0,1,539,4322c1.14,0.41,3.86,1.58,4.51,3.51a3.3,3.3,0,0,1-.67,3.12C541.06,4330.95,536.14,4333.14,528.93,4333.14Z" transform="translate(-421.67 -4321.06)"/><path id="_Path_2" data-name="&lt;Path&gt;" class="cls-1" d="M527.46,4338.69a20.25,20.25,0,0,1-12.47-3.9,16.9,16.9,0,0,1-5.11-6.07,1.87,1.87,0,0,1,3.42-1.5c0.19,0.43,4.7,10,19.13,7.23,14-2.69,14.28-8,14.28-8a1.87,1.87,0,0,1,3.73-.23c0.05,0.87,0,8.59-17.3,11.92A30,30,0,0,1,527.46,4338.69Z" transform="translate(-421.67 -4321.06)"/><path id="_Path_3" data-name="&lt;Path&gt;" class="cls-1" d="M530.45,4343.22c-17.14,0-26-9-26.44-9.38a1.87,1.87,0,0,1,2.68-2.61h0A27,27,0,0,0,514,4336a40.62,40.62,0,0,0,21.59,3.2c11.61-1.25,16.35-4,16.88-6a2.09,2.09,0,0,0-1-2,1.87,1.87,0,0,1,2.19-3,5.65,5.65,0,0,1,2.47,6c-0.83,3.11-5,7.17-20.09,8.79A51.92,51.92,0,0,1,530.45,4343.22Z" transform="translate(-421.67 -4321.06)"/><path id="_Path_4" data-name="&lt;Path&gt;" class="cls-1" d="M529.38,4349.63c-26.46,0-32.33-12-32.58-12.57a1.87,1.87,0,0,1,3.39-1.58c0.11,0.21,6.47,12.3,36,10.16,18.32-1.33,21.95-8,23.89-11.6,0.29-.54.57-1.05,0.87-1.5a1.87,1.87,0,0,1,3.11,2.07c-0.2.3-.43,0.72-0.69,1.21-2.13,3.92-6.55,12.07-26.91,13.54C533.95,4349.55,531.59,4349.63,529.38,4349.63Z" transform="translate(-421.67 -4321.06)"/><path id="_Path_5" data-name="&lt;Path&gt;" class="cls-1" d="M526,4354.51c-3.44,0-7.16-.11-11.19-0.36-12.73-.77-20.63-3.45-23.49-8a6.34,6.34,0,0,1-.78-5.61,1.87,1.87,0,0,1,3.48,1.36,2.81,2.81,0,0,0,.54,2.36c1.28,1.9,5.65,5.23,20.47,6.12,34.23,2.06,44.38-4.73,54.09-13.84a1.87,1.87,0,0,1,2.56,2.73C564.36,4346.16,555.46,4354.51,526,4354.51Z" transform="translate(-421.67 -4321.06)"/><path id="_Path_6" data-name="&lt;Path&gt;" class="cls-1" d="M522.34,4360.65a123,123,0,0,1-17.68-1.32c-10.42-1.51-16.66-4.46-18.56-8.74a6.89,6.89,0,0,1,.45-6.41,1.87,1.87,0,0,1,3.12,2.07,3.16,3.16,0,0,0-.12,2.88c0.78,1.69,3.86,4.79,15.65,6.5,15.78,2.3,45.48,3.41,67.09-15a1.87,1.87,0,1,1,2.42,2.85C561.48,4354.77,543.28,4360.65,522.34,4360.65Z" transform="translate(-421.67 -4321.06)"/><path id="_Path_7" data-name="&lt;Path&gt;" class="cls-1" d="M535.17,4416.67a119.59,119.59,0,0,1-18-1.45c-18.19-2.8-30.05-9.77-35.27-20.73-3.55-7.45-3.9-16.83-1-27.12A62.28,62.28,0,0,1,486.3,4354a1.87,1.87,0,0,1,3.23,1.89c-0.12.21-12,20.88-4.29,37,4.66,9.76,15.58,16,32.46,18.62,30,4.61,46.53-2.83,55.15-9.88,9-7.37,12.54-16.81,12.82-22.64,0.52-10.89-2.69-19.36-11.43-30.22a1.87,1.87,0,0,1,2.91-2.35c9.26,11.5,12.82,21,12.26,32.74-0.33,6.92-4.23,17.22-14.19,25.36C563.81,4413.86,548.95,4416.67,535.17,4416.67Z" transform="translate(-421.67 -4321.06)"/><ellipse id="_Path_8" data-name="&lt;Path&gt;" class="cls-1" cx="110.18" cy="59.69" rx="4.26" ry="5.82"/><ellipse id="_Path_9" data-name="&lt;Path&gt;" class="cls-1" cx="139.27" cy="55.74" rx="3.8" ry="5.19"/><g id="_Group_3" data-name="&lt;Group&gt;"><path id="_Path_10" data-name="&lt;Path&gt;" class="cls-1" d="M548.28,4399.37a16.33,16.33,0,0,1-8.81-2.74,1.25,1.25,0,1,1,1.46-2,13.87,13.87,0,0,0,8,2.25c4.59-.26,6.14-4.89,6.16-4.93a1.25,1.25,0,0,1,2.37.77c-0.08.26-2.12,6.29-8.39,6.65Z" transform="translate(-421.67 -4321.06)"/></g><g id="_Group_4" data-name="&lt;Group&gt;"><path id="_Path_11" data-name="&lt;Path&gt;" class="cls-1" d="M538.92,4398.73a1.25,1.25,0,0,1-1.09-1.84l2.37-4.38a1.25,1.25,0,0,1,2.19,1.19l-2.37,4.38A1.25,1.25,0,0,1,538.92,4398.73Z" transform="translate(-421.67 -4321.06)"/></g></g><polygon id="_Path_12" data-name="&lt;Path&gt;" class="cls-1" points="43.33 20.61 49.5 25.03 56.72 22.73 61.22 28.84 68.8 28.88 71.19 36.09 78.39 38.47 78.43 46.06 84.55 50.55 82.24 57.78 86.67 63.94 82.24 70.1 84.55 77.33 78.43 81.83 78.39 89.41 71.19 91.8 68.8 99 61.22 99.04 56.72 105.15 49.5 102.85 43.33 107.28 37.17 102.85 29.94 105.15 25.45 99.04 17.86 99 15.48 91.8 8.28 89.41 8.23 81.83 2.12 77.33 4.42 70.1 0 63.94 4.42 57.78 2.12 50.55 8.23 46.06 8.28 38.47 15.48 36.09 17.86 28.88 25.45 28.84 29.94 22.73 37.17 25.03 43.33 20.61"/><text class="cls-2" transform="translate(10.25 68.42)">P<tspan x="5.85" y="0">R</tspan><tspan x="11.8" y="0">OM</tspan><tspan x="28.23" y="0">O</tspan><tspan x="35.53" y="0">TION</tspan></text></g></svg>