<svg id="Layer_1" data-name="Layer 1" xmlns="http://www.w3.org/2000/svg" viewBox="0 0 77.22 55.1"><defs><style>.cls-1,.cls-3,.cls-4{fill:none;stroke:#f6f192;stroke-linecap:round;}.cls-1,.cls-3,.cls-4,.cls-5{stroke-miterlimit:10;}.cls-1{stroke-width:2.16px;}.cls-2,.cls-5{fill:#f6f192;}.cls-3,.cls-4{stroke-width:1.44px;}.cls-3{fill-rule:evenodd;}.cls-5{stroke:#8b5e3c;stroke-width:0.39px;}</style></defs><title>rotiboyroyalty</title><g id="_Group_" data-name="&lt;Group&gt;"><g id="_Group_2" data-name="&lt;Group&gt;"><g id="_Group_3" data-name="&lt;Group&gt;"><path id="_Path_" data-name="&lt;Path&gt;" class="cls-1" d="M1660.32,2695.15s-0.8,3.39,4.93,3.67,8.72-1.87,8.36-3-4.91-3.23-9.34-.48" transform="translate(-1623.9 -2692.96)"/><path id="_Path_2" data-name="&lt;Path&gt;" class="cls-1" d="M1656.25,2696.94s2.87,6.58,12.21,4.79,9.1-5.75,9.1-5.75" transform="translate(-1623.9 -2692.96)"/><path id="_Path_3" data-name="&lt;Path&gt;" class="cls-1" d="M1652.66,2699.58s6,6.16,17.54,4.91,11.79-5,9.64-6.58" transform="translate(-1623.9 -2692.96)"/><path id="_Path_4" data-name="&lt;Path&gt;" class="cls-1" d="M1648.71,2701.73s3.59,7.78,21.79,6.47c12.65-.92,13.89-6.23,15.09-8" transform="translate(-1623.9 -2692.96)"/><path id="_Path_5" data-name="&lt;Path&gt;" class="cls-1" d="M1645.11,2704.6s-2.2,5.43,13.05,6.35c20.83,1.26,26.7-3.32,32-8.26" transform="translate(-1623.9 -2692.96)"/><path id="_Path_6" data-name="&lt;Path&gt;" class="cls-1" d="M1642.72,2706.88s-3.47,5.15,9.7,7.06,28.38,0.6,39.51-8.86" transform="translate(-1623.9 -2692.96)"/><path id="_Path_7" data-name="&lt;Path&gt;" class="cls-1" d="M1642.61,2712.5s-16.65,28.47,17,33.65c31.18,4.8,40-12.21,40.41-19.75,0.31-6.46-1.62-11.67-6.82-18.14" transform="translate(-1623.9 -2692.96)"/><ellipse id="_Path_8" data-name="&lt;Path&gt;" class="cls-2" cx="44.02" cy="34.39" rx="2.45" ry="3.35"/><ellipse id="_Path_9" data-name="&lt;Path&gt;" class="cls-2" cx="60.78" cy="32.11" rx="2.19" ry="2.99"/><g id="_Group_4" data-name="&lt;Group&gt;"><path id="_Path_10" data-name="&lt;Path&gt;" class="cls-3" d="M1682,2734a5,5,0,0,1-4.19,3.34,8.66,8.66,0,0,1-5.07-1.43" transform="translate(-1623.9 -2692.96)"/></g><g id="_Group_5" data-name="&lt;Group&gt;"><line id="_Path_11" data-name="&lt;Path&gt;" class="cls-4" x1="48.1" y1="44.03" x2="49.47" y2="41.51"/></g></g><g id="_Group_6" data-name="&lt;Group&gt;"><path id="_Path_12" data-name="&lt;Path&gt;" class="cls-2" d="M1631.26,2706.62s0.3,10.24-3.8,13.12-5.92,20,1.68,24,15.19-.38,15.44-2.75-2.32-3.67-2.32-3.67a4.07,4.07,0,0,0,2.7-3,5.63,5.63,0,0,0-1.92-5.86s2.73-1.42,1.76-5.42c-0.33-1.35-.61-2.41-4.13-3.64s-5.4-.66-5.4-0.66,2.81-4.91,2.12-8.39S1631.75,2706.4,1631.26,2706.62Z" transform="translate(-1623.9 -2692.96)"/><path id="_Path_13" data-name="&lt;Path&gt;" class="cls-5" d="M1642.54,2728.14s-2.54-2.54-9.94-.85" transform="translate(-1623.9 -2692.96)"/><path id="_Path_14" data-name="&lt;Path&gt;" class="cls-5" d="M1641.61,2736.79c0.24,0.45-2.2-1.88-9.94-.85" transform="translate(-1623.9 -2692.96)"/></g></g></g></svg>