<?xml version="1.0" encoding="utf-8"?>
<!-- Generator: Adobe Illustrator 19.2.1, SVG Export Plug-In . SVG Version: 6.00 Build 0)  -->
<svg version="1.1" baseProfile="basic" id="Layer_1"
	 xmlns="http://www.w3.org/2000/svg" xmlns:xlink="http://www.w3.org/1999/xlink" x="0px" y="0px" viewBox="0 0 153 150"
	 xml:space="preserve">
<style type="text/css">
	.st0{opacity:0.8;}
	.st1{fill:#FFFFFF;}
	.st2{fill:none;stroke:#FFFFFF;stroke-width:3.2847;stroke-miterlimit:10;}
</style>
<g id="XMLID_4265_" class="st0">
	<g id="XMLID_7064_">
		<path id="XMLID_13_" class="st1" d="M30.2,66.5l-3.3,2.9c-1.2-1.6-2.4-2.4-3.6-2.4c-0.6,0-1.1,0.2-1.5,0.5
			c-0.4,0.3-0.6,0.7-0.6,1.1c0,0.4,0.1,0.8,0.4,1.1c0.4,0.5,1.5,1.5,3.3,3c1.7,1.4,2.8,2.3,3.1,2.7c0.9,0.9,1.6,1.8,1.9,2.7
			c0.4,0.8,0.6,1.8,0.6,2.8c0,1.9-0.7,3.6-2,4.8c-1.3,1.3-3.1,1.9-5.3,1.9c-1.7,0-3.2-0.4-4.4-1.2c-1.3-0.8-2.3-2.1-3.2-3.9l3.8-2.3
			c1.1,2.1,2.5,3.1,3.9,3.1c0.8,0,1.4-0.2,2-0.7c0.5-0.5,0.8-1,0.8-1.6c0-0.5-0.2-1.1-0.6-1.6c-0.4-0.5-1.3-1.4-2.6-2.5
			c-2.6-2.1-4.3-3.7-5-4.9c-0.8-1.1-1.1-2.3-1.1-3.4c0-1.6,0.6-3.1,1.9-4.2c1.3-1.2,2.8-1.8,4.6-1.8c1.2,0,2.3,0.3,3.4,0.8
			C27.8,64.1,29,65.1,30.2,66.5z"/>
		<path id="XMLID_11_" class="st1" d="M36.1,69.5h4.4v8.4c0,1.6,0.1,2.8,0.3,3.4c0.2,0.6,0.6,1.1,1.1,1.5c0.5,0.4,1.1,0.5,1.8,0.5
			c0.7,0,1.4-0.2,1.9-0.5c0.5-0.3,0.9-0.9,1.1-1.5c0.2-0.5,0.3-1.6,0.3-3.2v-8.6h4.4v7.4c0,3.1-0.2,5.2-0.7,6.3
			c-0.6,1.4-1.5,2.4-2.6,3.2c-1.1,0.7-2.6,1.1-4.4,1.1c-1.9,0-3.5-0.4-4.7-1.3c-1.2-0.9-2-2.1-2.5-3.6c-0.3-1.1-0.5-3-0.5-5.8V69.5z
			"/>
		<path id="XMLID_8_" class="st1" d="M61.9,62.7v8.7c0.8-0.8,1.7-1.4,2.6-1.8c0.9-0.4,1.9-0.6,3-0.6c2.3,0,4.2,0.9,5.8,2.6
			c1.6,1.7,2.4,3.9,2.4,6.7c0,2.6-0.8,4.8-2.5,6.5c-1.7,1.8-3.6,2.6-5.9,2.6c-1,0-1.9-0.2-2.8-0.5c-0.9-0.4-1.7-0.9-2.6-1.8V87h-4.4
			V62.7H61.9z M66.5,73.1c-1.4,0-2.5,0.5-3.4,1.4c-0.9,0.9-1.4,2.2-1.4,3.7c0,1.6,0.5,2.8,1.4,3.8c0.9,1,2.1,1.4,3.4,1.4
			c1.3,0,2.5-0.5,3.4-1.5c0.9-1,1.4-2.2,1.4-3.7c0-1.5-0.5-2.7-1.4-3.7C69.1,73.6,67.9,73.1,66.5,73.1z"/>
		<path id="XMLID_6_" class="st1" d="M81,69.5h4.4v2c0.8-0.8,1.6-1.4,2.5-1.9c0.9-0.4,1.9-0.6,3-0.6c1.1,0,2.1,0.3,3,0.8
			c0.9,0.5,1.6,1.3,2.1,2.4c0.7-1,1.6-1.8,2.6-2.4c1-0.5,2.1-0.8,3.3-0.8c1.2,0,2.3,0.3,3.3,0.9c0.9,0.6,1.6,1.3,2,2.3
			c0.4,0.9,0.6,2.5,0.6,4.6V87h-4.4v-8.9c0-2-0.2-3.3-0.7-4c-0.5-0.7-1.2-1.1-2.2-1.1c-0.8,0-1.4,0.2-2,0.6c-0.6,0.4-1,1-1.3,1.8
			c-0.3,0.8-0.4,2-0.4,3.6V87h-4.4v-8.5c0-1.6-0.1-2.7-0.3-3.4c-0.2-0.7-0.6-1.2-1-1.6c-0.5-0.3-1-0.5-1.7-0.5c-0.7,0-1.4,0.2-2,0.7
			c-0.6,0.4-1,1-1.3,1.8c-0.3,0.8-0.4,2-0.4,3.7V87H81V69.5z"/>
		<path id="XMLID_3_" class="st1" d="M115.4,62.3c0.8,0,1.4,0.3,2,0.8c0.6,0.6,0.8,1.2,0.8,2c0,0.8-0.3,1.5-0.8,2
			c-0.5,0.6-1.2,0.8-2,0.8c-0.8,0-1.4-0.3-2-0.8c-0.6-0.6-0.8-1.2-0.8-2.1c0-0.8,0.3-1.4,0.8-2C113.9,62.5,114.6,62.3,115.4,62.3z
			 M113.2,69.5h4.4V87h-4.4V69.5z"/>
		<path id="XMLID_1_" class="st1" d="M123.7,63h4.4v6.5h2.6v3.8h-2.6V87h-4.4V73.3h-2.3v-3.8h2.3V63z"/>
	</g>
	<circle id="XMLID_4266_" class="st2" cx="74.3" cy="73.2" r="69"/>
</g>
</svg>
