<svg id="Layer_1" data-name="Layer 1" xmlns="http://www.w3.org/2000/svg" viewBox="0 0 222.99 61.4"><defs><style>.cls-1{fill:#603913;}</style></defs><title>title</title><g id="_Group_" data-name="&lt;Group&gt;"><path id="_Compound_Path_" data-name="&lt;Compound Path&gt;" class="cls-1" d="M14.87,40s-1.5,4-7.34,4c0,0-2.17,3.51-3.66,3.51l15.67,1.16,3.33-5H14.21s5.5-2.17,8-12.67h4L33,42.35l2,3.32s2.34,4.67,6.84,2.18A59,59,0,0,0,47.22,43V41.85l-4.84,3.33s-2,1.16-4.16-3-6.68-12.34-6.68-12.34S41,25.18,41.88,17.5c0.18-1.66-3.66-5.84-8.32-6-3-.12-9.85-1.51-16.68.32S6.87,17,5.2,22a17.49,17.49,0,0,0-.49,3.66l4.67-2.33s-1.16-9,10.68-10.66c0,0,.32,1.66-0.51,6S14.87,40,14.87,40ZM25.55,12.34s3,0.17,4.5.34,5.67,1.66,5.84,5.67S35,25.66,31.38,28s-8.67,1.17-8.67,1.17C24,26.84,25.55,12.34,25.55,12.34Z" transform="translate(-3.87 -5.04)"/><path id="_Compound_Path_2" data-name="&lt;Compound Path&gt;" class="cls-1" d="M73.06,26.5c-3-8.32-11.88-5.26-14.67-3.65-10.17,5.84-10.33,17-10.33,17a11,11,0,0,0,.83,4.84c2.5,6,10.29,4.64,11.84,3.82C74.22,41.35,73.64,28.15,73.06,26.5ZM60.89,46.85a4.68,4.68,0,0,1-6.17-2.17c-1.29-2.91-1-5-1-7.34s0.34-2.5.34-2.5A13.38,13.38,0,0,1,60.55,24c2.65-1.57,6.33.32,7,4.16C67.84,29.79,67.56,42.18,60.89,46.85Z" transform="translate(-3.87 -5.04)"/><path id="_Compound_Path_3" data-name="&lt;Compound Path&gt;" class="cls-1" d="M175.64,26.5c-3-8.32-11.88-5.26-14.67-3.65-10.17,5.84-10.34,17-10.34,17a11.37,11.37,0,0,0,.83,4.84c2.5,6,10.31,4.64,11.84,3.82C176.81,41.35,176.23,28.15,175.64,26.5ZM163.47,46.85a4.68,4.68,0,0,1-6.17-2.17c-1.29-2.91-1-5-1-7.34s0.34-2.5.34-2.5A13.39,13.39,0,0,1,163.13,24c2.65-1.57,6.33.32,7,4.16C170.42,29.79,170.14,42.18,163.47,46.85Z" transform="translate(-3.87 -5.04)"/><path id="_Path_" data-name="&lt;Path&gt;" class="cls-1" d="M87.39,23.68h8.17l1.5-3h-9L89.89,13l-5.66.85L82.57,21h-4l-1,2.5h4.67s-3.84,15.34-4,19.34,1.67,6.49,4.18,6.35c0.83-.06,3,0.66,9-5.18l0.34-2.16S87.55,46.18,86.06,46s-4-.51-2.5-7.34C84.14,36,87.39,23.68,87.39,23.68Z" transform="translate(-3.87 -5.04)"/><path id="_Path_2" data-name="&lt;Path&gt;" class="cls-1" d="M114.41,7s-6.35,4.83-7.84,4.83l-0.51,3,6.33-2.67Z" transform="translate(-3.87 -5.04)"/><path id="_Path_3" data-name="&lt;Path&gt;" class="cls-1" d="M113.9,43.35l0.17-2s-4.67,4.16-6,4.83-3.49.67-2.16-4.16,5-21.35,5-21.35L98.57,24.84,98.4,26.17l5.33-1-3.17,17.49s-1,6.35,2.33,6.66a8.17,8.17,0,0,0,4.82-1.15C109.73,47.17,113.9,43.35,113.9,43.35Z" transform="translate(-3.87 -5.04)"/><path id="_Compound_Path_4" data-name="&lt;Compound Path&gt;" class="cls-1" d="M142.74,9l3.17-3.5S136.57,3,129.56,9.67c-1.63,1.56-4,4.17-7,16.17-1.66,6.64-5.34,23-5.34,23h11.33s8.17,0.34,14.67-14.34c1-2.19,3.33-13.51-2.83-14-2-.17-5.33.83-11.5,8a56.19,56.19,0,0,0-3.67,6S127.4,17,130.9,12.17,137.74,5.82,142.74,9Zm-11,19.84c2.1-2.25,6.67-6.51,7-1.51s0.34,15.16-8,18.84c-1.1.49-5.5,1.17-7.33-1,0,0,.17-1.34.32-2.34a5.47,5.47,0,0,1,.34-1.33S124.23,36.83,131.74,28.85Z" transform="translate(-3.87 -5.04)"/><path id="_Path_4" data-name="&lt;Path&gt;" class="cls-1" d="M194.09,43.52c-3.33,1.83-2.67-10-2.67-10s-1-11.67-3-12.84-7,3.35-7,3.35l-2.84,2.66v2.51a26.36,26.36,0,0,1,4-4.33c1.34-1.16,2.34.17,2.51,2.5s0.66,10.17,1.17,12.84,0.83,8.84,4,9.32c2,0.33,5.5-3.32,7.51-6.66s2.82-5,2.82-5l0.66-.49s-5.33,19-6,21.51-3.67,6.66-8.83,4.67a5.48,5.48,0,0,1-2.34-1.83l-3,3.33s6,1.82,8.34,1.33,7.5-3.18,10.67-9.51C201.25,54.51,207.76,32,210.43,22h-4.51S200,40.27,194.09,43.52Z" transform="translate(-3.87 -5.04)"/><path id="_Compound_Path_5" data-name="&lt;Compound Path&gt;" class="cls-1" d="M223.61,20.5L222,18.28a2,2,0,0,0,.93-0.45,1.5,1.5,0,0,0,.52-1.18,1.65,1.65,0,0,0-.34-1,1.78,1.78,0,0,0-.9-0.61,6.82,6.82,0,0,0-1.73-.15h-3V15a1.41,1.41,0,0,1,.61.09,0.42,0.42,0,0,1,.22.22,1.94,1.94,0,0,1,.07.66v4.25a2,2,0,0,1-.07.68,0.55,0.55,0,0,1-.22.21,1.52,1.52,0,0,1-.61.09v0.16h3.33V21.2a1.64,1.64,0,0,1-.62-0.09,0.6,0.6,0,0,1-.22-0.21,1.92,1.92,0,0,1-.07-0.68V18.4h0.43l2.1,3h2.05V21.18A0.82,0.82,0,0,1,224,21,4.28,4.28,0,0,1,223.61,20.5Zm-1.89-3a1,1,0,0,1-.52.45,3.25,3.25,0,0,1-1,.11h-0.28V15.2h0.52a1.53,1.53,0,0,1,1.13.37,1.48,1.48,0,0,1,.35,1.08A1.58,1.58,0,0,1,221.72,17.49Z" transform="translate(-3.87 -5.04)"/><path id="_Compound_Path_6" data-name="&lt;Compound Path&gt;" class="cls-1" d="M226.86,18.3a6,6,0,1,0-6.05,6.06A6,6,0,0,0,226.86,18.3Zm-6.05,5.33a5.32,5.32,0,1,1,5.33-5.33A5.32,5.32,0,0,1,220.81,23.63Z" transform="translate(-3.87 -5.04)"/></g></svg>